
<svg xmlns="http://www.w3.org/2000/svg" version="1.1" xmlns:xlink="http://www.w3.org/1999/xlink" preserveAspectRatio="none" x="0px" y="0px" width="1200px" height="400px" viewBox="0 0 1200 400">
<defs/>

<g id="Realico">
<g>
<g>
<g>
<path fill="#F3C300" stroke="none" d="
M 437.85 119.6
L 436.3 117.3 434.35 115.95 431.8 115.5
Q 429.85 115.5 428.2 116.6 426.5 117.75 425.7 119.45
L 383.75 207 382.35 211.35
Q 382.15 213.25 383.05 214.65 384 215.95 386.2 216.75 389.85 218.4 391.85 217.5 393.75 216.65 395.4 213.25
L 407 188.5 456.45 188.5 468.2 213.45
Q 469.75 216.75 471.75 217.75 473.8 218.55 477.3 216.9
L 480.45 214.7
Q 481.5 213.45 481.45 211.95
L 480.2 208.2 437.85 119.6
M 431.65 136
L 451.15 177.4 412.35 177.4 431.65 136
M 540.05 147.5
Q 538.6 146.65 535.85 146.65 533.05 146.65 531.65 147.4 530.3 148.3 529.8 149.7
L 529.4 153.2 529.4 185.1
Q 529.4 191.1 527 195.7 524.65 200.3 520.1 202.85 515.75 205.25 509.55 205.25 503.55 205.25 499.4 202.85 495.2 200.3 493.15 195.7 491.15 191.1 491.15 185.1
L 491.15 153.3 490.65 149.8
Q 490.25 148.45 488.9 147.5 487.45 146.65 484.6 146.65 481.95 146.65 480.5 147.4 479.15 148.3 478.65 149.7
L 478.25 153.2 478.25 185
Q 478.25 192.55 480.5 198.5 482.75 204.55 486.9 208.8 490.95 213 496.45 215.4 501.95 217.75 508.4 217.75 512.65 217.75 516 216.5 519.35 215.4 522.05 213.55
L 526.8 209.65 530.3 205.85 529.65 212.15 529.85 214.1 530.75 215.8 532.55 216.9 535.85 217.4
Q 538.6 217.4 540.05 216.65 541.4 215.95 541.75 214.5
L 542.1 211.35 542.1 153.3 541.75 149.8
Q 541.4 148.45 540.05 147.5
M 558.35 147.4
L 554.3 146.8
Q 551.35 146.8 550.05 147.4 548.75 148.1 548.25 149.55
L 547.85 153.2 547.85 210.8 548.2 214.35
Q 548.6 215.95 550 216.7 551.35 217.5 554.2 217.5 557.05 217.5 558.5 216.75 559.9 216.1 560.3 214.65
L 560.7 211.05 560.7 172
Q 560.7 168.45 562.15 165.75 563.5 163.2 565.7 161.5
L 570.3 158.9 574.9 158.05 579.6 158.55 581.85 159.65 583.55 160.75 586.3 161.3
Q 588.5 161.3 590.55 158.95 592.65 156.75 592.65 153.45 592.65 152.1 591.75 151
L 589.65 148.95 586.6 147.2 582.75 146.1 578.55 145.75
Q 574.25 145.75 571.2 146.8
L 566.05 149.35 562.55 152.8 560.15 156.55 560.7 152.25 560.2 149.35
Q 559.75 148.1 558.35 147.4
M 654.4 229.15
Q 653.75 228.45 652.9 228.25 652.35 228.1 651.8 228.1 651.25 228.1 650.85 228.25 649.9 228.45 649.2 229.15 648.15 230.2 648.15 231.75 648.15 233.25 649.2 234.35 650.3 235.45 651.8 235.45 653.4 235.45 654.4 234.35 655.5 233.25 655.5 231.75 655.5 230.2 654.4 229.15
M 656.6 148.05
Q 655.25 147.15 652.5 147.15 649.55 147.15 648.25 147.9 646.8 148.65 646.4 150.1
L 645.9 153.6 645.9 154.3
Q 643.7 152.5 641.25 151.05 633.25 146.3 623.3 146.3 615.95 146.3 609.6 149.15 603.2 151.95 598.2 156.85 593.3 161.7 590.65 168.1 587.9 174.55 587.9 182.1 587.9 189.65 590.75 196.15 593.65 202.7 598.65 207.45 603.7 212.3 610.15 215.05 616.5 217.8 623.65 217.8 630.55 217.8 636.85 215.1 641.8 213.05 645.9 209.7
L 645.9 211.35 646.4 214.85
Q 646.8 216.35 648.25 217.1 649.6 217.85 652.35 217.85 655.1 217.85 656.55 217.2 657.9 216.5 658.35 215.05
L 658.75 211.5 658.75 153.85 658.35 150.25
Q 657.9 148.8 656.6 148.05
M 603.55 194.1
Q 600.45 188.8 600.45 181.95 600.45 175.3 603.5 170.15 606.65 164.95 611.7 161.85 616.8 158.8 623.2 158.8 629.85 158.8 635 161.7 640.2 164.65 643.1 169.8 645.35 173.8 645.9 178.5
L 645.9 184.9
Q 645.35 189.8 642.9 193.85 639.75 199.25 634.5 202.3 629.35 205.3 623.3 205.3 617.2 205.3 612.05 202.35 606.7 199.35 603.55 194.1
M 697.35 255.7
Q 698.35 254.65 698.35 253.15 698.35 251.6 697.35 250.5 696.25 249.45 694.75 249.45 693.2 249.45 692.1 250.5 691 251.6 691 253.15 691 254.65 692.1 255.7 693.2 256.8 694.75 256.8 696.25 256.8 697.35 255.7 Z"/>

<path fill="#000000" stroke="none" d="
M 524.25 252.55
Q 523 250.5 520.95 249.25 518.9 248.1 516.35 248.1 514.4 248.1 512.75 248.75 511.15 249.5 509.9 250.75 508.65 252 507.95 253.65 507.2 255.3 507.2 257.2 507.2 259.2 507.95 260.85 508.7 262.5 510.05 263.75 511.35 264.95 513 265.65 514.55 266.4 516.4 266.4 518.2 266.4 519.8 265.7 521.45 265.05 522.65 263.8 523.95 262.55 524.65 260.9 525.4 259.2 525.4 257.2 525.4 254.6 524.25 252.55
M 519.3 252
Q 520.65 252.75 521.45 254.05 522.2 255.4 522.2 257.15 522.2 258.85 521.35 260.25 520.55 261.6 519.25 262.45 517.85 263.2 516.35 263.2 514.75 263.2 513.45 262.45 512.1 261.65 511.25 260.3 510.45 258.9 510.45 257.2 510.45 255.5 511.25 254.2 512 252.8 513.4 252.05 514.65 251.25 516.3 251.25 518 251.25 519.3 252
M 543.6 240.25
Q 543.25 240.05 542.55 240.05 541.9 240.05 541.55 240.25 541.15 240.45 541.05 240.8
L 541 251.15
Q 540.85 250.95 540.65 250.75 539.6 249.6 538.1 248.9 536.65 248.2 534.9 248.2 533.25 248.2 531.75 248.9 530.15 249.6 529.05 250.75 527.95 252 527.25 253.55 526.65 255.2 526.65 257.15 526.65 259.15 527.25 260.7 527.95 262.45 529.05 263.6 530.15 264.85 531.75 265.5 533.25 266.15 534.9 266.15 536.75 266.15 538.2 265.5 539.6 264.85 540.65 263.6 540.85 263.45 541 263.25
L 541 264.9
Q 541.05 265.6 541.4 265.85 541.75 266.15 542.55 266.15 543.35 266.15 543.6 265.95 543.95 265.7 544.1 265.4
L 544.1 240.8
Q 543.95 240.45 543.6 240.25
M 538.1 252.15
Q 539.35 252.9 540.1 254.2 540.85 255.5 540.85 257.2 540.85 258.9 540.1 260.25 539.35 261.55 538.1 262.3 536.85 263.05 535.35 263.05 533.85 263.05 532.55 262.3 531.3 261.55 530.55 260.25 529.85 258.9 529.85 257.2 529.85 255.5 530.55 254.2 531.3 252.9 532.55 252.15 533.8 251.35 535.35 251.35 536.85 251.35 538.1 252.15
M 587.05 241.75
Q 584 243.4 582.25 246.35 580.6 249.2 580.6 252.9 580.6 255.7 581.5 258.1 582.4 260.5 584.1 262.35 585.9 264.2 588.35 265.25 590.9 266.35 594.15 266.35 597 266.35 599.3 265.7 601.55 265.05 602.85 264.15 604.15 263.25 604.15 262.5
L 604 261.65 603.55 260.85
Q 603.35 260.35 602.85 260.15
L 601.95 260.1 598.6 261.55 596.75 261.95 594.15 262.15
Q 592.15 262.15 590.1 261.2 588.15 260.3 586.8 258.6 585.5 256.95 585.55 254.6
L 601 254.6
Q 602.95 254.6 604.15 253.5 605.45 252.4 605.45 249.65 605.45 247.95 604.65 246.2 603.9 244.5 602.4 243.15 600.85 241.75 598.75 240.85 596.6 240.05 593.95 240.05 590 240.05 587.05 241.75
M 589.65 245.25
Q 591.65 244.3 594 244.3 596.05 244.3 597.65 245.05 599.2 245.75 600.1 247 600.6 247.65 600.8 248.1 601 248.65 601 249.3 601 249.95 600.85 250.05 600.8 250.2 600.5 250.4 600.05 250.6 598.95 250.6
L 585.55 250.6
Q 585.4 249.45 586.65 247.8 587.75 246.15 589.65 245.25
M 576.75 231.8
Q 575.2 230.2 573 229.55 570.85 228.7 568.2 228.7
L 556.35 228.7
Q 555.35 228.7 554.85 229.05 554.3 229.35 554.2 229.9
L 553.95 231.05 553.95 263.6 554.1 264.9
Q 554.25 265.5 554.75 265.8 555.35 266.05 556.3 266.05 557.4 266.05 557.9 265.8 558.45 265.5 558.55 264.9
L 558.8 263.65 558.8 252.75 568.45 252.75 575.95 264.7
Q 576.65 265.7 577.4 265.95 578.15 266.25 579.3 265.5
L 580.45 264.5
Q 580.8 264 580.7 263.4
L 580.05 261.95 573.75 251.9
Q 574.25 251.7 574.65 251.35 576.55 250.2 577.8 248.5 578.95 246.7 579.6 244.7 580.15 242.65 580.15 240.8 580.15 237.85 579.25 235.5 578.4 233.25 576.75 231.8
M 568.1 233.6
Q 570.45 233.6 572.05 234.4 573.7 235.25 574.5 236.8 575.3 238.45 575.3 240.75 575.3 242.6 574.85 243.95 574.35 245.35 573.55 246.2 572.8 247.1 571.7 247.6 570.65 248 569.35 248
L 558.8 248 558.8 233.6 568.1 233.6
M 641.6 230.5
L 641.4 229.2
Q 641.25 228.65 640.75 228.45 640.2 228.1 639.1 228.1 638.15 228.1 637.65 228.45 637.1 228.7 637 229.2
L 636.85 230.65 636.85 257.35
Q 636.85 259.25 637.2 260.7 637.4 262.15 638.1 263.2 638.75 264.2 639.8 264.85 640.75 265.5 642.2 265.8 643.5 266.05 645.2 266.05
L 646.3 265.95
Q 646.8 265.8 647.1 265.3 647.35 264.75 647.35 263.75 647.35 262.7 647.1 262.2 646.8 261.75 646.3 261.55
L 643.55 261.2
Q 642.9 261 642.45 260.45 642 259.95 641.8 259.15
L 641.6 257.3 641.6 230.5
M 626.7 242.4
Q 625.5 241.35 623.8 240.8 622.15 240.2 619.8 240.2 617.35 240.2 615.1 241.2 612.9 242.25 611.15 243.95 609.45 245.75 608.55 248.1 607.6 250.4 607.6 253 607.6 255.7 608.55 258.05 609.45 260.35 611.15 262.2 612.8 264.05 615.1 265.05 617.3 266.05 619.8 266.05 622.45 266.05 624.3 265.25 626.05 264.4 627.25 263.3
L 628.9 261.4 628.65 264.05
Q 628.75 265.05 629.3 265.6 629.75 266 630.95 266 631.95 266 632.45 265.7 632.95 265.45 633.15 264.85
L 633.25 263.55 633.15 241.35
Q 632.95 240.8 632.45 240.5 632.05 240.2 631 240.2 629.75 240.2 629.2 240.65 628.65 241.2 628.65 242.4
L 628.8 244.65
Q 627.9 243.4 626.7 242.4
M 620.5 244.55
Q 622.65 244.55 624.4 245.65 626.25 246.75 627.35 248.65 628.45 250.55 628.45 253.1 628.45 255.55 627.45 257.4 626.35 259.35 624.55 260.45 622.75 261.55 620.65 261.55 618.1 261.55 616.25 260.5 614.3 259.4 613.25 257.5 612.15 255.55 612.15 253.15 612.15 250.75 613.25 248.75 614.3 246.85 616.2 245.65 618.05 244.55 620.5 244.55
M 665 241
Q 662.5 241.9 660.75 243.6 658.95 245.35 657.85 247.65 656.85 250.05 656.85 253.15 656.85 256.2 657.85 258.6 658.95 260.9 660.75 262.65 662.6 264.35 665.05 265.25 667.45 266.2 670.3 266.2 671.85 266.2 673.5 265.7 675.15 265.25 676.6 264.4 678.05 263.65 678.95 262.85
L 679.75 261.9
Q 680.05 261.4 679.95 260.85 679.9 260.3 679.4 259.8
L 678.4 258.8 677.5 258.45 676.6 258.7 674.15 260.45 672.2 261.25 670.1 261.55
Q 667.6 261.55 665.7 260.45 663.75 259.4 662.75 257.5 661.7 255.65 661.7 253.15 661.7 250.6 662.75 248.7 663.75 246.75 665.7 245.75 667.65 244.7 670.15 244.7
L 671.85 245 673.5 245.65 675 246.55 676.4 247.65
Q 677.35 248.2 678.3 247.45
L 679.05 246.85 679.6 246.15
Q 679.9 245.55 679.6 245.05
L 678.85 243.95
Q 678.25 243 676.85 242.1 675.5 241.2 673.8 240.65 672 240.05 670.15 240.05 667.4 240.05 665 241
M 653.4 240.45
Q 652.9 240.2 651.9 240.2 650.85 240.2 650.3 240.45 649.8 240.75 649.6 241.3
L 649.5 242.5 649.5 263.65 649.6 264.9
Q 649.8 265.5 650.3 265.8 650.85 266.05 651.8 266.05 652.85 266.05 653.4 265.8 653.85 265.6 654 265.05
L 654.2 263.75 654.2 242.6 654 241.3
Q 653.85 240.75 653.4 240.45
M 706.1 246.35
Q 704.35 243.35 701.4 241.6 698.35 239.85 694.75 239.85 692 239.85 689.6 240.85 687.25 241.95 685.4 243.75 683.55 245.6 682.55 247.95 681.55 250.35 681.55 253.15 681.55 255.95 682.65 258.4 683.65 260.8 685.55 262.55 687.45 264.35 689.8 265.4 692.2 266.4 694.8 266.4 697.4 266.4 699.75 265.4 702.05 264.4 703.95 262.65 705.7 260.85 706.8 258.45 707.85 256.05 707.85 253.1 707.85 249.3 706.1 246.35
M 690.4 245.65
Q 692.25 244.5 694.65 244.5 697.15 244.5 699.05 245.6 700.95 246.65 702.05 248.55 703.15 250.5 703.15 253 703.15 255.55 702 257.5 700.85 259.55 698.9 260.65 696.9 261.75 694.75 261.75 692.45 261.75 690.55 260.65 688.55 259.55 687.4 257.6 686.2 255.65 686.2 253.1 686.2 250.6 687.3 248.7 688.5 246.75 690.4 245.65 Z"/>
</g>
</g>
</g>
</g>

<g id="Dots"/>

<g id="Layer_1"/>
</svg>
