<?xml version="1.0" encoding="UTF-8"?>
<svg id="Layer_1" xmlns="http://www.w3.org/2000/svg" version="1.1" viewBox="0 0 325.54 150.9">
  <!-- Generator: Adobe Illustrator 30.0.0, SVG Export Plug-In . SVG Version: 2.1.1 Build 123)  -->
  <defs>
    <style>
      .st0 {
        fill: #fff;
      }

      .st1 {
        fill: #f3c300;
      }
    </style>
  </defs>
  <g id="Realico">
    <g>
      <path class="st1" d="M55.54,4.1l-1.55-2.3-1.95-1.35-2.55-.45c-1.3,0-2.5.37-3.6,1.1-1.13.77-1.97,1.72-2.5,2.85L1.44,91.5.04,95.85c-.13,1.27.1,2.37.7,3.3.63.87,1.68,1.57,3.15,2.1,2.43,1.1,4.32,1.35,5.65.75,1.27-.57,2.45-1.98,3.55-4.25l11.6-24.75h49.45l11.75,24.95c1.03,2.2,2.22,3.63,3.55,4.3,1.37.53,3.22.25,5.55-.85l3.15-2.2c.7-.83,1.03-1.75,1-2.75l-1.25-3.75L55.54,4.1M49.34,20.5l19.5,41.4H30.04l19.3-41.4M157.74,32c-.97-.57-2.37-.85-4.2-.85s-3.27.25-4.2.75c-.9.6-1.52,1.37-1.85,2.3l-.4,3.5v31.9c0,4-.8,7.53-2.4,10.6-1.57,3.07-3.87,5.45-6.9,7.15-2.9,1.6-6.42,2.4-10.55,2.4s-7.38-.8-10.15-2.4c-2.8-1.7-4.88-4.08-6.25-7.15-1.33-3.07-2-6.6-2-10.6v-31.8l-.5-3.5c-.27-.9-.85-1.67-1.75-2.3-.97-.57-2.4-.85-4.3-.85-1.77,0-3.13.25-4.1.75-.9.6-1.52,1.37-1.85,2.3l-.4,3.5v31.8c0,5.03.75,9.53,2.25,13.5,1.5,4.03,3.63,7.47,6.4,10.3,2.7,2.8,5.88,5,9.55,6.6,3.67,1.57,7.65,2.35,11.95,2.35,2.83,0,5.37-.42,7.6-1.25,2.23-.73,4.25-1.72,6.05-2.95l4.75-3.9,3.5-3.8-.65,6.3.2,1.95.9,1.7,1.8,1.1,3.3.5c1.83,0,3.23-.25,4.2-.75.9-.47,1.47-1.18,1.7-2.15l.35-3.15v-58.05l-.35-3.5c-.23-.9-.8-1.67-1.7-2.3M176.04,31.9l-4.05-.6c-1.97,0-3.38.2-4.25.6-.87.47-1.47,1.18-1.8,2.15l-.4,3.65v57.6l.35,3.55c.27,1.07.87,1.85,1.8,2.35.9.53,2.3.8,4.2.8s3.33-.25,4.3-.75c.93-.43,1.53-1.13,1.8-2.1l.4-3.6v-39.05c0-2.37.48-4.45,1.45-6.25.9-1.7,2.08-3.12,3.55-4.25l4.6-2.6,4.6-.85,4.7.5,2.25,1.1,1.7,1.1,2.75.55c1.47,0,2.88-.78,4.25-2.35,1.4-1.47,2.1-3.3,2.1-5.5,0-.9-.3-1.72-.9-2.45l-2.1-2.05-3.05-1.75-3.85-1.1-4.2-.35c-2.87,0-5.32.35-7.35,1.05l-5.15,2.55-3.5,3.45-2.4,3.75.55-4.3-.5-2.9c-.3-.83-.92-1.48-1.85-1.95M272.09,113.65c-.43-.47-.93-.77-1.5-.9-.37-.1-.73-.15-1.1-.15-.37,0-.68.05-.95.15-.63.13-1.18.43-1.65.9-.7.7-1.05,1.57-1.05,2.6s.35,1.87,1.05,2.6c.73.73,1.6,1.1,2.6,1.1,1.07,0,1.93-.37,2.6-1.1.73-.73,1.1-1.6,1.1-2.6s-.37-1.9-1.1-2.6M274.29,32.55c-.9-.6-2.27-.9-4.1-.9-1.97,0-3.38.25-4.25.75-.97.5-1.58,1.23-1.85,2.2l-.5,3.5v.7c-1.47-1.2-3.02-2.28-4.65-3.25-5.33-3.17-11.32-4.75-17.95-4.75-4.9,0-9.47.95-13.7,2.85-4.27,1.87-8.07,4.43-11.4,7.7-3.27,3.23-5.78,6.98-7.55,11.25-1.83,4.3-2.75,8.97-2.75,14s.95,9.72,2.85,14.05c1.93,4.37,4.57,8.13,7.9,11.3,3.37,3.23,7.2,5.77,11.5,7.6,4.23,1.83,8.73,2.75,13.5,2.75s9-.9,13.2-2.7c3.3-1.37,6.32-3.17,9.05-5.4v1.65l.5,3.5c.27,1,.88,1.75,1.85,2.25.9.5,2.27.75,4.1.75,1.83,0,3.23-.22,4.2-.65.9-.47,1.5-1.18,1.8-2.15l.4-3.55v-57.65l-.4-3.6c-.3-.97-.88-1.7-1.75-2.2M221.24,78.6c-2.07-3.53-3.1-7.58-3.1-12.15s1.02-8.37,3.05-11.8c2.1-3.47,4.83-6.23,8.2-8.3,3.4-2.03,7.23-3.05,11.5-3.05s8.37.97,11.8,2.9c3.47,1.97,6.17,4.67,8.1,8.1,1.5,2.67,2.43,5.57,2.8,8.7v6.4c-.37,3.27-1.37,6.25-3,8.95-2.1,3.6-4.9,6.42-8.4,8.45-3.43,2-7.17,3-11.2,3s-7.82-.98-11.25-2.95c-3.57-2-6.4-4.75-8.5-8.25M315.04,140.2c.67-.7,1-1.55,1-2.55,0-1.03-.33-1.92-1-2.65-.73-.7-1.6-1.05-2.6-1.05s-1.92.35-2.65,1.05c-.73.73-1.1,1.62-1.1,2.65s.37,1.85,1.1,2.55c.73.73,1.62,1.1,2.65,1.1s1.87-.37,2.6-1.1Z"/>
      <path class="st0" d="M141.94,137.05c-.83-1.37-1.93-2.47-3.3-3.3-1.37-.77-2.9-1.15-4.6-1.15-1.3,0-2.5.22-3.6.65-1.07.5-2.02,1.17-2.85,2-.83.83-1.48,1.8-1.95,2.9-.5,1.1-.75,2.28-.75,3.55,0,1.33.25,2.55.75,3.65.5,1.1,1.2,2.07,2.1,2.9.87.8,1.85,1.43,2.95,1.9,1.03.5,2.17.75,3.4.75s2.33-.23,3.4-.7c1.1-.43,2.05-1.07,2.85-1.9.87-.83,1.53-1.8,2-2.9.5-1.13.75-2.37.75-3.7,0-1.73-.38-3.28-1.15-4.65M136.99,136.5c.9.5,1.62,1.18,2.15,2.05.5.9.75,1.93.75,3.1s-.28,2.17-.85,3.1c-.53.9-1.23,1.63-2.1,2.2-.93.5-1.9.75-2.9.75-1.07,0-2.03-.25-2.9-.75-.9-.53-1.63-1.25-2.2-2.15-.53-.93-.8-1.97-.8-3.1,0-1.13.27-2.13.8-3,.5-.93,1.22-1.65,2.15-2.15.83-.53,1.8-.8,2.9-.8s2.13.25,3,.75M161.29,124.75c-.23-.13-.58-.2-1.05-.2-.43,0-.77.07-1,.2-.27.13-.43.32-.5.55l-.05,10.35c-.1-.13-.22-.27-.35-.4-.7-.77-1.55-1.38-2.55-1.85-.97-.47-2.03-.7-3.2-.7-1.1,0-2.15.23-3.15.7-1.07.47-1.97,1.08-2.7,1.85-.73.83-1.33,1.77-1.8,2.8-.4,1.1-.6,2.3-.6,3.6s.2,2.52.6,3.55c.47,1.17,1.07,2.13,1.8,2.9.73.83,1.63,1.47,2.7,1.9,1,.43,2.05.65,3.15.65,1.23,0,2.33-.22,3.3-.65.93-.43,1.75-1.07,2.45-1.9.13-.1.25-.22.35-.35v1.65c.03.47.17.78.4.95.23.2.62.3,1.15.3s.88-.07,1.05-.2c.23-.17.4-.35.5-.55v-24.6c-.1-.23-.27-.42-.5-.55M155.79,136.65c.83.5,1.5,1.18,2,2.05s.75,1.87.75,3-.25,2.15-.75,3.05c-.5.87-1.17,1.55-2,2.05s-1.75.75-2.75.75-1.93-.25-2.8-.75c-.83-.5-1.5-1.18-2-2.05-.47-.9-.7-1.92-.7-3.05s.23-2.13.7-3c.5-.87,1.17-1.55,2-2.05.83-.53,1.77-.8,2.8-.8,1,0,1.92.27,2.75.8M204.74,126.25c-2.03,1.1-3.63,2.63-4.8,4.6-1.1,1.9-1.65,4.08-1.65,6.55,0,1.87.3,3.6.9,5.2.6,1.6,1.47,3.02,2.6,4.25,1.2,1.23,2.62,2.2,4.25,2.9,1.7.73,3.63,1.1,5.8,1.1,1.9,0,3.62-.22,5.15-.65,1.5-.43,2.68-.95,3.55-1.55.87-.6,1.3-1.15,1.3-1.65l-.15-.85-.45-.8c-.13-.33-.37-.57-.7-.7l-.9-.05-3.35,1.45-1.85.4-2.6.2c-1.33,0-2.68-.32-4.05-.95-1.3-.6-2.4-1.47-3.3-2.6-.87-1.1-1.28-2.43-1.25-4h15.45c1.3,0,2.35-.37,3.15-1.1.87-.73,1.3-2.02,1.3-3.85,0-1.13-.27-2.28-.8-3.45-.5-1.13-1.25-2.15-2.25-3.05-1.03-.93-2.25-1.7-3.65-2.3-1.43-.53-3.03-.8-4.8-.8-2.63,0-4.93.57-6.9,1.7M207.34,129.75c1.33-.63,2.78-.95,4.35-.95,1.37,0,2.58.25,3.65.75,1.03.47,1.85,1.12,2.45,1.95.33.43.57.8.7,1.1.13.37.2.77.2,1.2s-.05.68-.15.75c-.03.1-.15.22-.35.35-.3.13-.82.2-1.55.2h-13.4c-.1-.77.27-1.7,1.1-2.8.73-1.1,1.73-1.95,3-2.55M194.44,116.3c-1.03-1.07-2.28-1.82-3.75-2.25-1.43-.57-3.03-.85-4.8-.85h-11.85c-.67,0-1.17.12-1.5.35-.37.2-.58.48-.65.85l-.25,1.15v32.55l.15,1.3c.1.4.32.7.65.9.4.17.92.25,1.55.25.73,0,1.27-.08,1.6-.25.37-.2.58-.5.65-.9l.25-1.25v-10.9h9.65l7.5,11.95c.47.67.95,1.08,1.45,1.25.5.2,1.13.05,1.9-.45l1.15-1c.23-.33.32-.7.25-1.1l-.65-1.45-6.3-10.05c.33-.13.63-.32.9-.55,1.27-.77,2.32-1.72,3.15-2.85.77-1.2,1.37-2.47,1.8-3.8.37-1.37.55-2.67.55-3.9,0-1.97-.3-3.73-.9-5.3-.57-1.5-1.4-2.73-2.5-3.7M185.79,118.1c1.57,0,2.88.27,3.95.8,1.1.57,1.92,1.37,2.45,2.4.53,1.1.8,2.42.8,3.95,0,1.23-.15,2.3-.45,3.2-.33.93-.77,1.68-1.3,2.25-.5.6-1.12,1.07-1.85,1.4-.7.27-1.48.4-2.35.4h-10.55v-14.4h9.3M259.29,115l-.2-1.3c-.1-.37-.32-.62-.65-.75-.37-.23-.92-.35-1.65-.35-.63,0-1.12.12-1.45.35-.37.17-.58.42-.65.75l-.15,1.45v26.7c0,1.27.12,2.38.35,3.35.13.97.43,1.8.9,2.5.43.67,1,1.22,1.7,1.65.63.43,1.43.75,2.4.95.87.17,1.87.25,3,.25l1.1-.1c.33-.1.6-.32.8-.65.17-.37.25-.88.25-1.55,0-.7-.08-1.22-.25-1.55-.2-.3-.47-.52-.8-.65l-2.75-.35c-.43-.13-.8-.38-1.1-.75-.3-.33-.52-.77-.65-1.3l-.2-1.85v-26.8M244.39,126.9c-.8-.7-1.77-1.23-2.9-1.6-1.1-.4-2.43-.6-4-.6s-3.2.33-4.7,1c-1.47.7-2.78,1.62-3.95,2.75-1.13,1.2-2,2.58-2.6,4.15-.63,1.53-.95,3.17-.95,4.9s.32,3.48.95,5.05c.6,1.53,1.47,2.92,2.6,4.15,1.1,1.23,2.42,2.18,3.95,2.85,1.47.67,3.03,1,4.7,1,1.77,0,3.27-.27,4.5-.8,1.17-.57,2.15-1.22,2.95-1.95l1.65-1.9-.25,2.65c.07.67.28,1.18.65,1.55.3.27.85.4,1.65.4.67,0,1.17-.1,1.5-.3.33-.17.57-.45.7-.85l.1-1.3-.1-22.2c-.13-.37-.37-.65-.7-.85-.27-.2-.75-.3-1.45-.3-.83,0-1.43.15-1.8.45-.37.37-.55.95-.55,1.75l.15,2.25c-.6-.83-1.3-1.58-2.1-2.25M238.19,129.05c1.43,0,2.73.37,3.9,1.1,1.23.73,2.22,1.73,2.95,3,.73,1.27,1.1,2.75,1.1,4.45s-.33,3.07-1,4.3c-.73,1.3-1.7,2.32-2.9,3.05-1.2.73-2.5,1.1-3.9,1.1-1.7,0-3.17-.35-4.4-1.05-1.3-.73-2.3-1.73-3-3-.73-1.3-1.1-2.75-1.1-4.35s.37-3.07,1.1-4.4c.7-1.27,1.68-2.3,2.95-3.1,1.23-.73,2.67-1.1,4.3-1.1M282.69,125.5c-1.67.6-3.08,1.47-4.25,2.6-1.2,1.17-2.17,2.52-2.9,4.05-.67,1.6-1,3.43-1,5.5s.33,3.85,1,5.45c.73,1.53,1.7,2.88,2.9,4.05,1.23,1.13,2.67,2,4.3,2.6,1.6.63,3.35.95,5.25.95,1.03,0,2.1-.17,3.2-.5,1.1-.3,2.13-.73,3.1-1.3.97-.5,1.75-1.02,2.35-1.55l.8-.95c.2-.33.27-.68.2-1.05-.03-.37-.22-.72-.55-1.05l-1-1-.9-.35-.9.25-2.45,1.75-1.95.8-2.1.3c-1.67,0-3.13-.37-4.4-1.1-1.3-.7-2.28-1.68-2.95-2.95-.7-1.23-1.05-2.68-1.05-4.35s.35-3.18,1.05-4.45c.67-1.3,1.65-2.28,2.95-2.95,1.3-.7,2.78-1.05,4.45-1.05l1.7.3,1.65.65,1.5.9,1.4,1.1c.63.37,1.27.3,1.9-.2l.75-.6.55-.7c.2-.4.2-.77,0-1.1l-.75-1.1c-.4-.63-1.07-1.25-2-1.85-.9-.6-1.92-1.08-3.05-1.45-1.2-.4-2.42-.6-3.65-.6-1.83,0-3.55.32-5.15.95M271.09,124.95c-.33-.17-.83-.25-1.5-.25-.7,0-1.23.08-1.6.25-.33.2-.57.48-.7.85l-.1,1.2v21.15l.1,1.25c.13.4.37.7.7.9.37.17.87.25,1.5.25.7,0,1.23-.08,1.6-.25.3-.13.5-.38.6-.75l.2-1.3v-21.15l-.2-1.3c-.1-.37-.3-.65-.6-.85M323.79,130.85c-1.17-2-2.73-3.58-4.7-4.75-2.03-1.17-4.25-1.75-6.65-1.75-1.83,0-3.55.33-5.15,1-1.57.73-2.97,1.7-4.2,2.9-1.23,1.23-2.18,2.63-2.85,4.2-.67,1.6-1,3.33-1,5.2s.37,3.62,1.1,5.25c.67,1.6,1.63,2.98,2.9,4.15,1.27,1.2,2.68,2.15,4.25,2.85,1.6.67,3.27,1,5,1s3.38-.33,4.95-1c1.53-.67,2.93-1.58,4.2-2.75,1.17-1.2,2.12-2.6,2.85-4.2.7-1.6,1.05-3.38,1.05-5.35,0-2.53-.58-4.78-1.75-6.75M308.09,130.15c1.23-.77,2.65-1.15,4.25-1.15s3.13.37,4.4,1.1c1.27.7,2.27,1.68,3,2.95.73,1.3,1.1,2.78,1.1,4.45,0,1.7-.38,3.2-1.15,4.5-.77,1.37-1.8,2.42-3.1,3.15-1.33.73-2.72,1.1-4.15,1.1-1.53,0-2.93-.37-4.2-1.1-1.33-.73-2.38-1.75-3.15-3.05-.8-1.3-1.2-2.8-1.2-4.5s.37-3.13,1.1-4.4c.8-1.3,1.83-2.32,3.1-3.05Z"/>
    </g>
  </g>
</svg>