<?xml version="1.0" encoding="UTF-8"?>
<svg id="Layer_1" data-name="Layer 1" xmlns="http://www.w3.org/2000/svg" viewBox="0 0 86.58 78.5">
  <defs>
    <style>
      .cls-1 {
        fill: #fff;
      }
    </style>
  </defs>
  <path class="cls-1" d="M85.53,37.74c-3.69,12.45-9.11,24.46-16.11,35.71-1.35,2.18-2.95,4.27-5.46,4.88-.51.12-1.01.17-1.49.17-1.2,0-2.33-.3-3.29-.55-16.29-4.3-47.1-14.64-56.16-17.72-.75-.25-1.35-.74-1.74-1.39-1.35-1.16-3.9-5.63,6.64-51.59l.18-.78c.3-1.29.91-3.99,3.27-4.95,1.36-.55,2.77-.3,4.1.06,2.87.77,5.66,1.78,8.33,2.99.94-1.8,2.18-3.53,4.26-4.25,2.21-.76,4.54,0,6.08.51l10.91,3.59c2.72.9,5.48,1.99,6.72,4.5.36.73.54,1.46.7,2.18.14.58.26,1.13.48,1.59,1.02,2.16,4.22,2.94,6.8,3.57,6.65,1.63,13.15,3.86,19.32,6.63,2.44,1.1,5.16,2.48,6.55,5.02,1.61,2.95.91,6.47-.09,9.83Z"/>
  <path d="M42.77,11.58l-11.2-4.05c-.65-.24-1.36.1-1.6.75-.23.64.1,1.36.75,1.6l11.2,4.05c.14.05.28.07.42.07.51,0,.99-.31,1.18-.82.23-.65-.1-1.37-.75-1.6ZM42.77,11.58l-11.2-4.05c-.65-.24-1.36.1-1.6.75-.23.64.1,1.36.75,1.6l11.2,4.05c.14.05.28.07.42.07.51,0,.99-.31,1.18-.82.23-.65-.1-1.37-.75-1.6ZM85.62,27.91c-1.39-2.54-4.11-3.92-6.55-5.02-6.17-2.77-12.67-5-19.32-6.63-2.58-.63-5.78-1.41-6.8-3.57-.22-.46-.34-1.01-.48-1.59-.16-.72-.34-1.45-.7-2.18-1.24-2.51-4-3.6-6.72-4.5l-10.91-3.59c-1.54-.51-3.87-1.27-6.08-.51-2.08.72-3.32,2.45-4.26,4.25-2.67-1.21-5.46-2.22-8.33-2.99-1.33-.36-2.74-.61-4.1-.06-2.36.96-2.97,3.66-3.27,4.95l-.18.78C-2.62,53.21-.07,57.68,1.28,58.84c.39.65.99,1.14,1.74,1.39,9.06,3.08,39.87,13.42,56.16,17.72.96.25,2.09.55,3.29.55.48,0,.98-.05,1.49-.17,2.51-.61,4.11-2.7,5.46-4.88,7-11.25,12.42-23.26,16.11-35.71,1-3.36,1.7-6.88.09-9.83ZM10.54,7.02c.32-1.41.76-2.77,1.77-3.18.71-.29,1.67-.07,2.51.15.5.14.98.29,1.47.43l-5.81,2.86.06-.26ZM10.05,9.16l8.29-4.07c.72.24,1.42.51,2.12.79l-10.88,5.35c.15-.68.31-1.37.47-2.07ZM9.16,13.1l13.14-6.46c.14.07.28.13.42.19-.47,1.02-.96,2.09-1.47,3.21l-12.8,6.29c.23-1.05.47-2.12.71-3.23ZM8.04,18.2l12.24-6.01c-.5,1.11-1.02,2.25-1.54,3.42l-11.33,5.57c.2-.97.42-1.96.63-2.98ZM7.02,23.04l10.76-5.29c-.54,1.22-1.09,2.46-1.65,3.71l-9.76,4.8c.21-1.04.43-2.11.65-3.22ZM6,28.11l9.18-4.51c-.6,1.35-1.2,2.71-1.8,4.07l-8.05,3.96c.21-1.12.43-2.3.67-3.52ZM4.99,33.46l7.45-3.66c-.58,1.33-1.16,2.65-1.74,3.95l-6.3,3.1c.18-1.07.38-2.2.59-3.39ZM4.09,38.67l5.68-2.79c-.7,1.59-1.37,3.14-2.03,4.64l-4.25,2.09c.17-1.21.37-2.52.6-3.94ZM2.5,52.54c.06-1.85.26-4.46.74-8.14l3.57-1.75c-1.68,3.84-3.16,7.25-4.31,9.89ZM83.14,37.03c-3.55,11.95-8.73,23.5-15.38,34.34-19.07-4.96-37.38-10.96-55.96-18.36-.64-.26-1.36.06-1.62.7-.26.64.06,1.37.7,1.62,18.41,7.34,36.57,13.3,55.45,18.25-.8,1.08-1.75,2.03-2.96,2.32-1.04.25-2.18,0-3.55-.37-16.21-4.27-46.96-14.6-56-17.66-.22-.08-.39-.22-.47-.41h0s0-.04-.02-.06c-.04-.13-.07-.32.03-.55,3.49-8.05,15.38-35.45,22.08-49.95.84-1.82,1.79-3.65,3.44-4.22.39-.13.79-.19,1.21-.19,1,0,2.09.33,3.27.71l10.91,3.6c2.22.73,4.45,1.58,5.26,3.23.23.47.37,1.03.51,1.63.15.69.32,1.39.65,2.1,1.53,3.23,5.54,4.21,8.46,4.93,6.51,1.59,12.87,3.77,18.89,6.48,2.07.93,4.36,2.08,5.38,3.94,1.24,2.26.5,5.27-.28,7.92ZM42.77,11.58l-11.2-4.05c-.65-.24-1.36.1-1.6.75-.23.64.1,1.36.75,1.6l11.2,4.05c.14.05.28.07.42.07.51,0,.99-.31,1.18-.82.23-.65-.1-1.37-.75-1.6Z"/>
</svg>