<?xml version="1.0" encoding="UTF-8"?>
<svg id="Layer_1" data-name="Layer 1" xmlns="http://www.w3.org/2000/svg" viewBox="0 0 62.5 64.3">
  <defs>
    <style>
      .cls-1 {
        fill: #fff;
      }
    </style>
  </defs>
  <path class="cls-1" d="M61.5,35.9c-1.11,1.76-3.04,2.97-5.13,3.36.81,1.6,1.03,3.49.53,5.2-.59,2.01-2.17,3.72-4.14,4.64.78,1.69.78,3.69-.1,5.37-.94,1.8-2.79,3.07-4.85,3.4-.29,2.61-2.61,4.78-5.01,5.64-1.89.68-3.84.79-5.78.79-.51,0-1.02-.01-1.53-.01l-.91-.02c-.8,0-1.59,0-2.39.01-2.97,0-6.04.04-9.03-.64-3.39-.77-6.14-2.43-7.83-4.63-.64.69-1.54,1.13-2.55,1.13H3.46c-1.91,0-3.46-1.55-3.46-3.46v-29.41c0-1.91,1.55-3.47,3.46-3.47h9.33c.55,0,1.07.14,1.53.37,1.38-1.76,3.74-2.75,5.89-3.64,1.4-.58,2.71-1.13,3.54-1.78,2.99-2.36,3.29-6.43,3.57-10.37l.05-.58c.15-2.02.43-4.33,1.96-6.05,1.79-2.04,3.55-2.01,5.63-1.33,2.04.67,3.9,2.92,4.96,6.02.97,2.83,2.49,10.15-2.99,19.47,5.41-.18,12.84-.24,16.93-.24,1.47,0,3.31,0,4.98.76,1.61.74,2.84,2.2,3.37,4.01.56,1.89.3,3.88-.71,5.46Z"/>
  <path d="M62.21,30.44c-.53-1.81-1.76-3.27-3.37-4.01-1.67-.76-3.51-.76-4.98-.76-4.09,0-11.52.06-16.93.24,5.48-9.32,3.96-16.64,2.99-19.47-1.06-3.1-2.92-5.35-4.96-6.02-2.08-.68-3.84-.71-5.63,1.33-1.53,1.72-1.81,4.03-1.96,6.05l-.05.58c-.28,3.94-.58,8.01-3.57,10.37-.83.65-2.14,1.2-3.54,1.78-2.15.89-4.51,1.88-5.89,3.64-.46-.23-.98-.37-1.53-.37H3.46c-1.91,0-3.46,1.56-3.46,3.47v29.41c0,1.91,1.55,3.46,3.46,3.46h9.32c1.01,0,1.91-.44,2.55-1.13,1.69,2.2,4.44,3.86,7.83,4.63,2.99.68,6.06.65,9.03.64.8-.01,1.59-.01,2.39-.01l.91.02c.51,0,1.02.01,1.53.01,1.94,0,3.89-.11,5.78-.79,2.4-.86,4.72-3.03,5.01-5.64,2.06-.33,3.91-1.6,4.85-3.4.88-1.68.88-3.68.1-5.37,1.97-.92,3.55-2.63,4.14-4.64.5-1.71.28-3.6-.53-5.2,2.09-.39,4.02-1.6,5.13-3.36,1.01-1.58,1.27-3.57.71-5.46ZM6.89,31.3c.22-.3.5-.51.7-.56.14.06.3.08.46.08.79-.02,1.66-.01,2.14.37.42.32.56,1.07.32,1.66-.26.65-.91,1.2-1.74,1.47-.62.2-1.2.2-1.61,0-.43-.21-.75-.71-.81-1.26-.06-.57.13-1.21.54-1.76ZM11.88,55.71h-7.1c-.41,0-.75-.34-.75-.75s.34-.75.75-.75h7.1c.41,0,.75.34.75.75s-.34.75-.75.75ZM12.42,52.47h-7.96c-.41,0-.75-.34-.75-.75s.34-.75.75-.75h7.96c.42,0,.75.33.75.75s-.33.75-.75.75ZM29.82,8.56l.04-.58c.08-1.04.19-2.1.49-3.03.65,1.02,1.07,2.17,1.19,3.37.08.74.05,1.77-.5,2.47-.33.43-.97.7-1.46.57.1-.94.17-1.88.24-2.8ZM59.4,34.56c-1.05,1.64-3.28,2.59-5.3,2.27-.55-.09-1.09.19-1.32.7-.24.5-.12,1.1.3,1.47,1.33,1.19,1.91,3.1,1.42,4.76-.49,1.69-2.06,3.07-3.89,3.45-.02.01-.04.02-.07.03-.08.02-.15.06-.22.1-.08.03-.15.07-.22.12-.02.02-.04.02-.06.04-.04.03-.06.08-.1.12-.06.07-.11.13-.15.21-.04.07-.07.14-.09.21-.03.08-.05.15-.06.23,0,.09,0,.17,0,.26,0,.05,0,.1,0,.16.01.02.02.05.03.07.02.06.04.12.07.17.04.09.08.18.14.25.02.03.03.06.05.08.97,1.11,1.18,2.77.51,4.06-.68,1.32-2.31,2.17-3.85,2.15-.71-.07-1.26.52-1.29,1.21,0,.04.02.08.02.12s-.01.08,0,.12c.29,1.79-1.48,3.56-3.37,4.24-1.95.7-4.12.67-6.42.63l-.93-.02c-.81,0-1.62,0-2.43.01-2.96.02-5.75.04-8.45-.58-2.87-.65-6.29-2.43-7.38-5.45.85-9.75.83-19.45-.1-28.83-.03-.3-.11-.58-.2-.84.84-1.45,3.01-2.37,5.13-3.24,1.56-.65,3.03-1.26,4.13-2.13,2.59-2.04,3.6-4.9,4.07-7.85.15.03.3.04.46.04.92,0,1.85-.48,2.4-1.19.67-.87.95-2.09.8-3.54-.16-1.64-.77-3.21-1.74-4.53-.04-.06-.1-.1-.16-.15.03-.03.05-.06.07-.09.88-1,1.43-1.11,2.98-.6.96.31,2.42,1.66,3.37,4.45.92,2.67,2.37,9.88-3.9,19.18-.38.57-.23,1.34.33,1.72.24.23.56.36.92.34,5.36-.24,14.29-.32,18.95-.32,1.57,0,2.86.04,3.94.54.96.44,1.7,1.32,2.02,2.43.35,1.19.2,2.46-.41,3.42Z"/>
</svg>