<?xml version="1.0" encoding="UTF-8"?>
<svg id="Layer_1" data-name="Layer 1" xmlns="http://www.w3.org/2000/svg" viewBox="0 0 77.83 48.07">
  <defs>
    <style>
      .cls-1 {
        fill: #fff;
      }
    </style>
  </defs>
  <path class="cls-1" d="M5.34,18.17l-4.16-.22c-.69-.03-1.22-.62-1.18-1.31.03-.69.59-1.22,1.31-1.18l4.16.21c.69.04,1.22.63,1.19,1.32-.04.66-.59,1.18-1.25,1.18h-.07Z"/>
  <path class="cls-1" d="M4.65,9.5c-.52-.46-.57-1.25-.11-1.77.46-.52,1.25-.56,1.76-.1l4.21,3.73c.51.45.56,1.24.1,1.76-.25.28-.59.42-.93.42-.3,0-.6-.1-.83-.31l-4.2-3.73Z"/>
  <path class="cls-1" d="M9.71,3.04c-.3-.62-.05-1.37.57-1.67.62-.31,1.37-.06,1.67.56l3.11,6.26c.3.62.05,1.37-.57,1.68-.18.09-.37.13-.55.13-.46,0-.9-.26-1.12-.7l-3.11-6.26Z"/>
  <path class="cls-1" d="M17.6,5.49l-.28-4.16c-.04-.69.48-1.28,1.17-1.33.7-.05,1.28.48,1.33,1.17l.27,4.16c.05.68-.47,1.28-1.16,1.33h-.08c-.66,0-1.21-.51-1.25-1.17Z"/>
  <path class="cls-1" d="M77.4,27.31c-5.6,12.02-17.88,19.75-32.85,20.67-.98.06-1.96.09-2.93.09-14.71,0-28.33-6.84-35.27-17.91-.01-.02-.02-.04-.04-.07-1.24-1.36-1.44-3.19-.52-4.83C12.17,13.98,24.55,6.76,38.93,5.93c15.24-.88,29.77,5.49,37.88,16.62.19.25.34.53.48.83.68,1.24.72,2.63.11,3.93Z"/>
  <g>
    <path d="M19.82,1.17c-.05-.69-.63-1.22-1.33-1.17-.69.05-1.21.64-1.17,1.33l.28,4.16c.04.66.59,1.17,1.25,1.17h.08c.69-.05,1.21-.65,1.16-1.33l-.27-4.16ZM15.06,8.19l-3.11-6.26c-.3-.62-1.05-.87-1.67-.56-.62.3-.87,1.05-.57,1.67l3.11,6.26c.22.44.66.7,1.12.7.18,0,.37-.04.55-.13.62-.31.87-1.06.57-1.68ZM10.51,11.36l-4.21-3.73c-.51-.46-1.3-.42-1.76.1-.46.52-.41,1.31.11,1.77l4.2,3.73c.23.21.53.31.83.31.34,0,.68-.14.93-.42.46-.52.41-1.31-.1-1.76ZM5.47,15.67l-4.16-.21c-.72-.04-1.28.49-1.31,1.18-.04.69.49,1.28,1.18,1.31l4.16.22h.07c.66,0,1.21-.52,1.25-1.18.03-.69-.5-1.28-1.19-1.32ZM71.09,24.89c-6.7-8.66-18.13-13.56-30.56-13.1-12.01.45-22.66,5.96-28.47,14.74-.28.42-.28.97.01,1.38,5.97,8.86,17.03,14.23,29.16,14.23.53,0,1.07-.01,1.61-.04,12.42-.48,23.02-6.4,28.35-15.83.25-.43.21-.98-.1-1.38ZM49.55,38.73c-2.18.49-4.46.79-6.81.88-2.55.1-5.06-.05-7.48-.44-8.57-1.36-16.07-5.64-20.64-11.96,4.06-5.72,10.42-9.85,17.88-11.76,2.59-.66,5.31-1.06,8.12-1.16,3.62-.13,7.15.21,10.48,1,7.06,1.66,13.22,5.3,17.49,10.48-3.98,6.51-10.81,11.1-19.04,12.96ZM71.09,24.89c-6.7-8.66-18.13-13.56-30.56-13.1-12.01.45-22.66,5.96-28.47,14.74-.28.42-.28.97.01,1.38,5.97,8.86,17.03,14.23,29.16,14.23.53,0,1.07-.01,1.61-.04,12.42-.48,23.02-6.4,28.35-15.83.25-.43.21-.98-.1-1.38ZM49.55,38.73c-2.18.49-4.46.79-6.81.88-2.55.1-5.06-.05-7.48-.44-8.57-1.36-16.07-5.64-20.64-11.96,4.06-5.72,10.42-9.85,17.88-11.76,2.59-.66,5.31-1.06,8.12-1.16,3.62-.13,7.15.21,10.48,1,7.06,1.66,13.22,5.3,17.49,10.48-3.98,6.51-10.81,11.1-19.04,12.96ZM77.29,23.38c-.14-.3-.29-.58-.48-.83-8.11-11.13-22.64-17.5-37.88-16.62-14.38.83-26.76,8.05-33.14,19.33-.92,1.64-.72,3.47.52,4.83.02.03.03.05.04.07,6.94,11.07,20.56,17.91,35.27,17.91.97,0,1.95-.03,2.93-.09,14.97-.92,27.25-8.65,32.85-20.67.61-1.3.57-2.69-.11-3.93ZM75.14,26.26c-5.21,11.17-16.7,18.36-30.74,19.23-14.89.92-28.98-5.6-35.9-16.61l-.06-.12c-.06-.1-.13-.2-.21-.28-.4-.4-.78-1.08-.26-1.99,5.95-10.53,17.58-17.29,31.1-18.07,14.42-.84,28.1,5.15,35.72,15.6.09.12.16.25.22.4.02.04.04.09.07.13.31.55.33,1.12.06,1.71ZM40.53,11.79c-12.01.45-22.66,5.96-28.47,14.74-.28.42-.28.97.01,1.38,5.97,8.86,17.03,14.23,29.16,14.23.53,0,1.07-.01,1.61-.04,12.42-.48,23.02-6.4,28.35-15.83.25-.43.21-.98-.1-1.38-6.7-8.66-18.13-13.56-30.56-13.1ZM49.55,38.73c-2.18.49-4.46.79-6.81.88-2.55.1-5.06-.05-7.48-.44-8.57-1.36-16.07-5.64-20.64-11.96,4.06-5.72,10.42-9.85,17.88-11.76,2.59-.66,5.31-1.06,8.12-1.16,3.62-.13,7.15.21,10.48,1,7.06,1.66,13.22,5.3,17.49,10.48-3.98,6.51-10.81,11.1-19.04,12.96Z"/>
    <path d="M42.24,19.89h-.01c-1.68,0-3.26.67-4.46,1.88-1.26,1.27-1.95,2.98-1.94,4.81.02,3.67,2.92,6.65,6.46,6.65h.01c1.68-.01,3.26-.67,4.46-1.88,1.26-1.27,1.95-2.98,1.94-4.81-.02-3.67-2.92-6.65-6.46-6.65ZM44.98,29.59c-.72.73-1.68,1.14-2.69,1.14-2.17,0-3.95-1.87-3.96-4.17-.01-1.16.42-2.23,1.21-3.03.73-.73,1.69-1.14,2.69-1.14h.01c2.17,0,3.94,1.87,3.96,4.17,0,1.15-.43,2.23-1.22,3.03ZM42.24,19.89h-.01c-1.68,0-3.26.67-4.46,1.88-1.26,1.27-1.95,2.98-1.94,4.81.02,3.67,2.92,6.65,6.46,6.65h.01c1.68-.01,3.26-.67,4.46-1.88,1.26-1.27,1.95-2.98,1.94-4.81-.02-3.67-2.92-6.65-6.46-6.65ZM44.98,29.59c-.72.73-1.68,1.14-2.69,1.14-2.17,0-3.95-1.87-3.96-4.17-.01-1.16.42-2.23,1.21-3.03.73-.73,1.69-1.14,2.69-1.14h.01c2.17,0,3.94,1.87,3.96,4.17,0,1.15-.43,2.23-1.22,3.03ZM51.1,15.29c-2.53-2-5.73-3.2-9.21-3.2h-.03c-3.48.01-6.76,1.19-9.36,3.36-.37.3-.71.62-1.05.96-2.69,2.71-4.15,6.28-4.13,10.06.03,5.52,3.26,10.31,7.94,12.7,2.02,1.04,4.31,1.62,6.74,1.62h.03c2.7-.01,5.28-.72,7.52-2.06,1.04-.63,2.02-1.38,2.89-2.27,2.69-2.7,4.15-6.27,4.13-10.06-.03-4.48-2.16-8.49-5.47-11.11ZM50.67,34.7c-2.29,2.31-5.36,3.58-8.65,3.59h-.02c-6.68,0-12.14-5.31-12.18-11.83-.02-3.12,1.19-6.06,3.4-8.29,2.29-2.3,5.36-3.57,8.65-3.58h.02c6.68,0,12.14,5.3,12.18,11.83.02,3.11-1.19,6.05-3.4,8.28ZM42.24,19.89h-.01c-1.68,0-3.26.67-4.46,1.88-1.26,1.27-1.95,2.98-1.94,4.81.02,3.67,2.92,6.65,6.46,6.65h.01c1.68-.01,3.26-.67,4.46-1.88,1.26-1.27,1.95-2.98,1.94-4.81-.02-3.67-2.92-6.65-6.46-6.65ZM44.98,29.59c-.72.73-1.68,1.14-2.69,1.14-2.17,0-3.95-1.87-3.96-4.17-.01-1.16.42-2.23,1.21-3.03.73-.73,1.69-1.14,2.69-1.14h.01c2.17,0,3.94,1.87,3.96,4.17,0,1.15-.43,2.23-1.22,3.03Z"/>
  </g>
</svg>