<?xml version="1.0" encoding="UTF-8"?>
<svg id="Layer_1" data-name="Layer 1" xmlns="http://www.w3.org/2000/svg" viewBox="0 0 90.04 75.42">
  <defs>
    <style>
      .cls-1 {
        fill: #fff;
      }
    </style>
  </defs>
  <path class="cls-1" d="M82.29,65.5c.65,2.99,2.51,5.85,5.03,7.66.44.31.62.88.46,1.4-.17.52-.65.86-1.19.86h-.01c-11.04-.08-14.62-4.91-15.58-9.38-18.49,0-38.86-.12-39.06-.12-6.12,0-11.11-4.98-11.11-11.11v-10.25h-4.24c-1.31,6.45-10.02,7.97-13.46,8h-.01c-.54,0-1.02-.35-1.19-.87-.17-.51.02-1.08.46-1.4,2.06-1.48,3.6-3.8,4.17-6.24-3.87-1.28-6.56-4.98-6.56-9.24V9.65C0,4.33,4.32,0,9.64,0h40.02c5.32,0,9.64,4.33,9.64,9.65v4.5h19.63c6.13,0,11.11,4.98,11.11,11.11v29.55c0,4.97-3.19,9.28-7.75,10.69Z"/>
  <path d="M42.23,36.79c-2.28,0-4.14,1.73-4.14,3.85s1.86,3.84,4.14,3.84,4.14-1.72,4.14-3.84-1.86-3.85-4.14-3.85ZM42.23,41.98c-.91,0-1.64-.6-1.64-1.34s.73-1.35,1.64-1.35,1.64.61,1.64,1.35-.74,1.34-1.64,1.34ZM54.42,36.79c-2.29,0-4.14,1.73-4.14,3.85s1.85,3.84,4.14,3.84,4.13-1.72,4.13-3.84-1.85-3.85-4.13-3.85ZM54.42,41.98c-.91,0-1.64-.6-1.64-1.34s.73-1.35,1.64-1.35,1.63.61,1.63,1.35-.73,1.34-1.63,1.34ZM66.61,36.79c-2.29,0-4.14,1.73-4.14,3.85s1.85,3.84,4.14,3.84,4.13-1.72,4.13-3.84-1.85-3.85-4.13-3.85ZM66.61,41.98c-.91,0-1.64-.6-1.64-1.34s.73-1.35,1.64-1.35,1.63.61,1.63,1.35-.73,1.34-1.63,1.34ZM66.61,36.79c-2.29,0-4.14,1.73-4.14,3.85s1.85,3.84,4.14,3.84,4.13-1.72,4.13-3.84-1.85-3.85-4.13-3.85ZM66.61,41.98c-.91,0-1.64-.6-1.64-1.34s.73-1.35,1.64-1.35,1.63.61,1.63,1.35-.73,1.34-1.63,1.34ZM54.42,36.79c-2.29,0-4.14,1.73-4.14,3.85s1.85,3.84,4.14,3.84,4.13-1.72,4.13-3.84-1.85-3.85-4.13-3.85ZM54.42,41.98c-.91,0-1.64-.6-1.64-1.34s.73-1.35,1.64-1.35,1.63.61,1.63,1.35-.73,1.34-1.63,1.34ZM42.23,36.79c-2.28,0-4.14,1.73-4.14,3.85s1.86,3.84,4.14,3.84,4.14-1.72,4.14-3.84-1.86-3.85-4.14-3.85ZM42.23,41.98c-.91,0-1.64-.6-1.64-1.34s.73-1.35,1.64-1.35,1.64.61,1.64,1.35-.74,1.34-1.64,1.34ZM90.04,54.81v-29.55c0-6.13-4.98-11.11-11.11-11.11h-19.63v-4.5c0-5.32-4.32-9.65-9.64-9.65H9.64C4.32,0,0,4.33,0,9.65v25.16c0,4.26,2.69,7.96,6.56,9.24-.57,2.44-2.11,4.76-4.17,6.24-.44.32-.63.89-.46,1.4.17.52.65.87,1.19.87h.01c3.44-.03,12.15-1.55,13.46-8h4.24v10.25c0,6.13,4.99,11.11,11.11,11.11.2,0,20.57.12,39.06.12.96,4.47,4.54,9.3,15.58,9.38h.01c.54,0,1.02-.34,1.19-.86.16-.52-.02-1.09-.46-1.4-2.52-1.81-4.38-4.67-5.03-7.66,4.56-1.41,7.75-5.72,7.75-10.69ZM4.18,39.49c-1.05-1.27-1.68-2.9-1.68-4.68V9.65c0-1.75.63-3.36,1.68-4.6v34.44ZM5.68,40.83V3.71c.59-.4,1.26-.71,1.96-.92v38.94c-.71-.2-1.37-.5-1.96-.9ZM10.81,48.11c-1.32.73-2.83,1.19-4.16,1.48,1.4-1.85,2.31-4.05,2.58-6.32.02-.2-.02-.39-.09-.58V2.53c.17-.02.33-.03.5-.03h1.17v45.61ZM14.28,43.11c-.01.05-.03.09-.03.13-.1,1.64-.86,2.88-1.94,3.82V2.5h1.97v40.61ZM54.81,4.71c1.23,1.28,1.99,3.02,1.99,4.94v4.5h-1.99V4.71ZM52,2.9c.46.16.9.37,1.31.62v10.63h-1.31V2.9ZM48.54,2.5h1.12c.28,0,.56.02.84.05v11.6h-1.96V2.5ZM45.37,2.5h1.67v11.65h-1.67V2.5ZM41.9,2.5h1.97v11.65h-1.97V2.5ZM38.73,2.5h1.67v11.65h-1.67V2.5ZM35.26,2.5h1.97v11.65h-1.97V2.5ZM32.1,2.5h1.66v11.65h-1.66V2.5ZM28.63,2.5h1.97v11.74c-.68.08-1.34.22-1.97.41V2.5ZM25.58,2.5h1.55v12.64s.02.07.02.11c-.55.26-1.07.57-1.57.91V2.5ZM17.45,42.06h-1.67s0-39.56,0-39.56h1.67v39.56ZM20.91,23.97c-.05.42-.08.85-.08,1.29v16.8h-1.88V2.5h1.96v21.47ZM22.41,2.5h1.67v14.92c-.64.64-1.2,1.37-1.67,2.16V2.5ZM80.64,63.34c-.64.12-1.09.72-1.01,1.38.34,2.91,1.61,5.73,3.55,8-5.98-.74-9.29-3.45-9.88-8.09-.08-.62-.61-1.09-1.24-1.09-18.76,0-39.9-.12-40.12-.12-4.75,0-8.61-3.86-8.61-8.61v-29.55c0-4.75,3.86-8.61,8.61-8.61h46.99c4.75,0,8.61,3.86,8.61,8.61v29.55c0,4.19-2.9,7.78-6.9,8.53ZM66.61,36.79c-2.29,0-4.14,1.73-4.14,3.85s1.85,3.84,4.14,3.84,4.13-1.72,4.13-3.84-1.85-3.85-4.13-3.85ZM66.61,41.98c-.91,0-1.64-.6-1.64-1.34s.73-1.35,1.64-1.35,1.63.61,1.63,1.35-.73,1.34-1.63,1.34ZM54.42,36.79c-2.29,0-4.14,1.73-4.14,3.85s1.85,3.84,4.14,3.84,4.13-1.72,4.13-3.84-1.85-3.85-4.13-3.85ZM54.42,41.98c-.91,0-1.64-.6-1.64-1.34s.73-1.35,1.64-1.35,1.63.61,1.63,1.35-.73,1.34-1.63,1.34ZM42.23,36.79c-2.28,0-4.14,1.73-4.14,3.85s1.86,3.84,4.14,3.84,4.14-1.72,4.14-3.84-1.86-3.85-4.14-3.85ZM42.23,41.98c-.91,0-1.64-.6-1.64-1.34s.73-1.35,1.64-1.35,1.64.61,1.64,1.35-.74,1.34-1.64,1.34Z"/>
</svg>