<?xml version="1.0" encoding="UTF-8"?>
<svg id="Layer_1" data-name="Layer 1" xmlns="http://www.w3.org/2000/svg" viewBox="0 0 79.59 82.37">
  <defs>
    <style>
      .cls-1 {
        fill: #fff;
      }
    </style>
  </defs>
  <path class="cls-1" d="M52.64,58.28c-2.53.57-4.88.82-7.05.82-5.75,0-10.31-1.78-13.91-4.33-3.02,4.15-6.02,8.3-9.01,12.45-3.14,4.35-6.28,8.7-9.44,13.04-.34.6-.87,1.06-1.54,1.34-.51.21-1.08.31-1.7.31h-.15c-2.51-.07-5.06-1.42-6.83-3.6-1.47-1.82-2.51-4.17-3-6.79,0-.02,0-.04,0-.06-.02-.09,0-.18,0-.27.01-.07,0-.15.02-.22s.06-.14.09-.21c.04-.08.07-.15.13-.22,0-.02,0-.04.03-.06,3.83-4.57,7.64-9.13,11.46-13.69,3.55-4.25,7.1-8.5,10.67-12.75-.17-.31-.33-.6-.49-.89-2.94-4.68-4.29-10.28-3.83-16.18C19.26,12.06,31.85,0,46.2,0h.16c4.6.03,8.94,1.29,12.67,3.62,6.77,3.13,13.91,13.21,15.58,19.92,1.97,7.91.25,17.43-4.19,23.15-4.53,5.85-11.01,10.08-17.78,11.59Z"/>
  <path class="cls-1" d="M79.59,73.68c-.04.47-.35.88-.79,1.05l-4.64,1.82-1.14,4.85c-.11.47-.47.83-.93.94-.1.02-.19.03-.29.03-.36,0-.72-.16-.96-.46l-3.16-3.85-4.97.42c-.47.04-.93-.19-1.17-.6-.25-.41-.24-.92.01-1.32l2.69-4.19-1.94-4.6c-.18-.44-.1-.94.21-1.3.31-.36.8-.51,1.26-.39l4.82,1.26,3.77-3.26c.36-.31.87-.39,1.31-.21.44.19.73.6.76,1.08l.29,4.97,4.27,2.58c.4.25.64.7.6,1.18Z"/>
  <g>
    <path d="M58.79,12.9c-3.35-3.64-7.96-5.67-12.99-5.7h-.13c-10.54,0-19.8,8.86-20.66,19.81-.43,5.52,1.28,10.68,4.82,14.54,3.35,3.65,7.97,5.67,13,5.71h.12c10.55,0,19.8-8.86,20.66-19.82.44-5.51-1.28-10.68-4.82-14.54ZM27.81,32.23c-.33-1.61-.44-3.29-.31-5.02.74-9.33,8.32-16.92,17.17-17.46-5.97,2.66-10.96,6.95-13.82,12.02-1.92,3.4-2.93,7.02-3.04,10.46ZM61.12,27.25c-.76,9.68-8.9,17.51-18.17,17.51h-.11c-4.17-.03-7.99-1.66-10.83-4.57.03-.25,0-.51-.13-.75-2.48-4.48-2.04-10.78,1.14-16.44,3.26-5.78,9.6-10.46,16.95-12.52.09-.02.15-.08.23-.11,2.57.77,4.89,2.2,6.75,4.23,3.07,3.34,4.55,7.83,4.17,12.65ZM55.04,29.02c-.66-.12-1.32.33-1.44,1.01-.81,4.64-4.74,8.69-9.35,9.64-.68.14-1.11.8-.97,1.48.12.59.64.99,1.22.99.09,0,.17,0,.26-.02,5.66-1.17,10.31-5.96,11.3-11.66.12-.68-.34-1.32-1.02-1.44ZM74.61,23.54c-1.67-6.71-8.81-16.79-15.58-19.92C55.3,1.29,50.96.03,46.36,0h-.16C31.85,0,19.26,12.06,18.09,26.97c-.46,5.9.89,11.5,3.83,16.18.16.29.32.58.49.89-3.57,4.25-7.12,8.5-10.67,12.75-3.82,4.56-7.63,9.12-11.46,13.69-.02.02-.02.04-.03.06-.06.07-.09.14-.13.22-.03.07-.07.14-.09.21s-.01.15-.02.22c0,.09-.02.18,0,.27,0,.02,0,.04,0,.06.49,2.62,1.53,4.97,3,6.79,1.77,2.18,4.32,3.53,6.83,3.6h.15c.62,0,1.19-.1,1.7-.31.67-.28,1.2-.74,1.54-1.34,3.16-4.34,6.3-8.69,9.44-13.04,2.99-4.15,5.99-8.3,9.01-12.45,3.6,2.55,8.16,4.33,13.91,4.33,2.17,0,4.52-.25,7.05-.82,6.77-1.51,13.25-5.74,17.78-11.59,4.44-5.72,6.16-15.24,4.19-23.15ZM13.65,58.39c1.55-1.85,3.1-3.7,4.65-5.55.45,1.57,1.33,3.01,2.56,4.11.64.58,1.38,1.06,2.16,1.42-3.09,4.66-6.47,9.2-10.04,13.49-.19.22-.21.51-.12.75-.97-.51-1.87-1.18-2.62-1.99-1.32-1.43-2.19-3.27-2.47-5.2,1.96-2.34,3.93-4.69,5.88-7.03ZM11.16,78.86c-.04.05-.07.11-.1.16-.04.08-.12.18-.33.27-.21.09-.5.12-.82.12-1.79-.05-3.64-1.05-4.96-2.68-1.11-1.36-1.9-3.13-2.35-5.12,1.06-1.27,2.12-2.54,3.18-3.8.54,1.66,1.44,3.22,2.63,4.51.78.85,1.7,1.57,2.69,2.17l-2.52,2.48c-.3.29-.3.77,0,1.06.15.15.34.23.54.23s.38-.08.52-.22l2.87-2.83c.34.14.67.27,1.02.39-.79,1.08-1.57,2.17-2.36,3.26ZM20.64,65.76c-1.85,2.56-3.71,5.12-5.57,7.69-.43-.11-.86-.24-1.28-.41.13-.04.25-.11.34-.22,3.69-4.42,7.16-9.11,10.35-13.92.32.09.65.15.98.2-1.61,2.22-3.22,4.44-4.82,6.66ZM27.2,56.69s-.05,0-.08,0c-1.65.1-3.36-.49-4.59-1.6-1.23-1.1-2.01-2.75-2.08-4.4,0-.12-.04-.22-.08-.32,1.14-1.36,2.27-2.71,3.41-4.07,1.11,1.72,2.45,3.5,4.07,5.17-.01,0-.03.02-.04.03l-2.27,3.12c-.25.34-.17.81.16,1.05.13.1.29.15.44.15.23,0,.46-.11.61-.31l2.17-2.98c.26.23.52.47.79.7-.85,1.15-1.68,2.31-2.51,3.46ZM26.48,45.02c-.92-.99-1.73-2.07-2.44-3.2-.75-1.42-1.34-2.71-1.8-3.72-.16-.35-.3-.66-.43-.93-1.07-3.11-1.5-6.5-1.23-10.01,1.08-13.63,12.55-24.66,25.61-24.66h.16c6.12.04,11.73,2.5,15.79,6.93,4.34,4.72,6.43,11.07,5.9,17.86-1.07,13.63-12.55,24.66-25.61,24.66h-.15c-6.12-.04-11.73-2.5-15.8-6.93ZM68.44,45.16c-4.18,5.4-10.14,9.29-16.35,10.68-8.59,1.92-14.82-.04-19.36-3.36,2.95,1.27,6.17,1.95,9.53,1.97h.17c14.34,0,26.93-12.06,28.1-26.96.25-3.17-.03-6.26-.79-9.16,1.15,2.06,2.01,4.08,2.45,5.81,1.76,7.11.19,15.94-3.75,21.02ZM42.95,47.26c10.55,0,19.8-8.86,20.66-19.82.44-5.51-1.28-10.68-4.82-14.54-3.35-3.64-7.96-5.67-12.99-5.7h-.13c-10.54,0-19.8,8.86-20.66,19.81-.43,5.52,1.28,10.68,4.82,14.54,3.35,3.65,7.97,5.67,13,5.71h.12ZM27.81,32.23c-.33-1.61-.44-3.29-.31-5.02.74-9.33,8.32-16.92,17.17-17.46-5.97,2.66-10.96,6.95-13.82,12.02-1.92,3.4-2.93,7.02-3.04,10.46ZM31.88,39.44c-2.48-4.48-2.04-10.78,1.14-16.44,3.26-5.78,9.6-10.46,16.95-12.52.09-.02.15-.08.23-.11,2.57.77,4.89,2.2,6.75,4.23,3.07,3.34,4.55,7.83,4.17,12.65-.76,9.68-8.9,17.51-18.17,17.51h-.11c-4.17-.03-7.99-1.66-10.83-4.57.03-.25,0-.51-.13-.75ZM44.5,42.14c.09,0,.17,0,.26-.02,5.66-1.17,10.31-5.96,11.3-11.66.12-.68-.34-1.32-1.02-1.44-.66-.12-1.32.33-1.44,1.01-.81,4.64-4.74,8.69-9.35,9.64-.68.14-1.11.8-.97,1.48.12.59.64.99,1.22.99ZM55.04,29.02c-.66-.12-1.32.33-1.44,1.01-.81,4.64-4.74,8.69-9.35,9.64-.68.14-1.11.8-.97,1.48.12.59.64.99,1.22.99.09,0,.17,0,.26-.02,5.66-1.17,10.31-5.96,11.3-11.66.12-.68-.34-1.32-1.02-1.44ZM55.04,29.02c-.66-.12-1.32.33-1.44,1.01-.81,4.64-4.74,8.69-9.35,9.64-.68.14-1.11.8-.97,1.48.12.59.64.99,1.22.99.09,0,.17,0,.26-.02,5.66-1.17,10.31-5.96,11.3-11.66.12-.68-.34-1.32-1.02-1.44ZM58.79,12.9c-3.35-3.64-7.96-5.67-12.99-5.7h-.13c-10.54,0-19.8,8.86-20.66,19.81-.43,5.52,1.28,10.68,4.82,14.54,3.35,3.65,7.97,5.67,13,5.71h.12c10.55,0,19.8-8.86,20.66-19.82.44-5.51-1.28-10.68-4.82-14.54ZM27.81,32.23c-.33-1.61-.44-3.29-.31-5.02.74-9.33,8.32-16.92,17.17-17.46-5.97,2.66-10.96,6.95-13.82,12.02-1.92,3.4-2.93,7.02-3.04,10.46ZM61.12,27.25c-.76,9.68-8.9,17.51-18.17,17.51h-.11c-4.17-.03-7.99-1.66-10.83-4.57.03-.25,0-.51-.13-.75-2.48-4.48-2.04-10.78,1.14-16.44,3.26-5.78,9.6-10.46,16.95-12.52.09-.02.15-.08.23-.11,2.57.77,4.89,2.2,6.75,4.23,3.07,3.34,4.55,7.83,4.17,12.65ZM55.04,29.02c-.66-.12-1.32.33-1.44,1.01-.81,4.64-4.74,8.69-9.35,9.64-.68.14-1.11.8-.97,1.48.12.59.64.99,1.22.99.09,0,.17,0,.26-.02,5.66-1.17,10.31-5.96,11.3-11.66.12-.68-.34-1.32-1.02-1.44Z"/>
    <path d="M78.99,72.5l-4.27-2.58-.29-4.97c-.03-.48-.32-.89-.76-1.08-.44-.18-.95-.1-1.31.21l-3.77,3.26-4.82-1.26c-.46-.12-.95.03-1.26.39-.31.36-.39.86-.21,1.3l1.94,4.6-2.69,4.19c-.25.4-.26.91-.01,1.32.24.41.7.64,1.17.6l4.97-.42,3.16,3.85c.24.3.6.46.96.46.1,0,.19-.01.29-.03.46-.11.82-.47.93-.94l1.14-4.85,4.64-1.82c.44-.17.75-.58.79-1.05.04-.48-.2-.93-.6-1.18ZM72.63,74.46c-.38.15-.66.48-.76.88l-.71,3.03-1.97-2.4c-.24-.29-.59-.46-.96-.46h-.11l-3.09.27,1.67-2.62c.22-.35.26-.78.1-1.16l-1.21-2.86,3.01.78c.39.1.82.01,1.13-.26l2.35-2.04.19,3.11c.02.41.24.78.6.99l2.66,1.61-2.9,1.13Z"/>
  </g>
</svg>