<?xml version="1.0" encoding="UTF-8"?>
<svg id="Layer_1" data-name="Layer 1" xmlns="http://www.w3.org/2000/svg" viewBox="0 0 104.11 85.9">
  <defs>
    <style>
      .cls-1 {
        fill: #fff;
      }
    </style>
  </defs>
  <path class="cls-1" d="M103.67,79.81c-2.99,2.53-6.34,4.55-9.97,6-.15.06-.31.09-.47.09-.25,0-.5-.07-.72-.23-.34-.24-.54-.64-.53-1.07l.17-4.34-90.92-1.29c-.69-.01-1.24-.58-1.23-1.27.01-.68.57-1.23,1.25-1.23h.02l3.73.05c.26-4.82,1.2-22.68,1.21-23.98.01-.33.14-.65.38-.88.24-.23.55-.34.89-.35l18.21.25c.07,0,.13.03.19.04.09.02.18.03.26.06.08.03.15.09.22.14.06.04.13.06.18.11l4.02,3.86s.01.02.02.02c.07.07.11.15.16.23.04.06.09.12.11.18.03.06.03.13.04.2.03.09.05.18.05.28,0,.01.01.02.01.03l-.6,20.17,2.82.04c.25-7.45,1.55-46.47,1.59-49.23.01-.69.56-1.2,1.27-1.23l17.57.24c.38-.37.97-.49,1.46-.22,2.07,1.14,4.78,3.79,4.9,3.9h0c.08.1.14.2.19.29.03.05.07.08.09.13.02.05,0,.1.03.15.03.11.06.22.06.33h0c0,.35-.53,32.82-.65,46.02l3.73.05c.23-6.18,2.68-72.12,2.74-76.11,0-.33.14-.65.38-.88.23-.23.58-.35.88-.36l18.21.26c.34.01.65.14.88.38.13.13.22.29.28.45,1.6,1.74,3.28,3.44,4.98,5.06.01.01.01.02.02.03.07.06.11.14.16.22.04.06.09.11.11.18.03.06.03.13.05.2.02.09.05.18.05.27v.04l-1.75,70.65,1.85.02.16-4.06c.03-.69.59-1.23,1.3-1.2.5.02.93.33,1.11.77,2.66,1.76,5.52,3.25,8.5,4.42.4.16.7.53.77.96s-.09.87-.42,1.16Z"/>
  <path d="M104.09,78.65c-.07-.43-.37-.8-.77-.96-2.98-1.17-5.84-2.66-8.5-4.42-.18-.44-.61-.75-1.11-.77-.71-.03-1.27.51-1.3,1.2l-.16,4.06-1.85-.02,1.75-70.65v-.04c0-.09-.03-.18-.05-.27-.02-.07-.02-.14-.05-.2-.02-.07-.07-.12-.11-.18-.05-.08-.09-.16-.16-.22-.01-.01-.01-.02-.02-.03-1.7-1.62-3.38-3.32-4.98-5.06-.06-.16-.15-.32-.28-.45-.23-.24-.54-.37-.88-.38l-18.21-.26c-.3.01-.65.13-.88.36-.24.23-.38.55-.38.88-.06,3.99-2.51,69.93-2.74,76.11l-3.73-.05c.12-13.2.65-45.67.65-46.01h0c0-.12-.03-.23-.06-.34-.02-.05-.01-.1-.03-.15-.02-.05-.06-.08-.09-.13-.05-.09-.11-.19-.19-.28h0c-.12-.12-2.83-2.77-4.9-3.91-.49-.27-1.08-.15-1.46.22l-17.57-.24c-.71.03-1.26.54-1.27,1.23-.04,2.76-1.34,41.78-1.59,49.23l-2.82-.04.6-20.17s-.01-.02-.01-.03c0-.1-.02-.19-.05-.28-.01-.07-.01-.14-.04-.2-.02-.06-.07-.12-.11-.18-.05-.08-.09-.16-.16-.23-.01,0-.01,0-.02-.02l-4.02-3.86c-.05-.05-.12-.07-.18-.11-.07-.05-.14-.11-.22-.14-.08-.03-.17-.04-.26-.06-.06,0-.12-.04-.19-.04l-18.21-.25c-.34.01-.65.12-.89.35-.24.23-.37.55-.38.88-.01,1.3-.95,19.16-1.21,23.98l-3.73-.05h-.02c-.68,0-1.24.55-1.25,1.23,0,.69.54,1.26,1.23,1.27l90.92,1.29-.17,4.34c-.01.43.19.83.53,1.07.22.16.47.23.72.23.16,0,.32-.03.47-.09,3.63-1.45,6.98-3.47,9.97-6,.33-.29.49-.73.42-1.16ZM23.21,76.78l-15.7-.22c.03-.56.06-1.26.11-2.09,4.06.48,8.18.72,12.29.72,1.13,0,2.26-.03,3.39-.07-.03.65-.06,1.21-.09,1.66ZM23.38,73.62c-5.23.17-10.5-.03-15.69-.65.05-.8.09-1.67.14-2.58,4.02.46,8.08.7,12.14.7,1.18,0,2.36-.03,3.55-.07-.05.93-.1,1.8-.14,2.6ZM23.59,69.52c-5.22.18-10.49-.03-15.68-.63.05-1.04.11-2.11.16-3.19,4.14.45,8.32.69,12.49.69,1.07,0,2.13-.03,3.2-.06-.06,1.08-.11,2.15-.17,3.19ZM23.84,64.82c-5.23.16-10.5-.05-15.69-.62.06-1.06.11-2.11.16-3.12,4.08.45,8.2.68,12.31.68,1.13,0,2.25-.04,3.38-.07-.05,1.02-.11,2.07-.16,3.13ZM24.07,60.19c-5.22.16-10.49-.04-15.68-.61.05-1.1.1-2.13.15-3.04,4.02.43,8.09.66,12.15.66,1.18,0,2.36-.04,3.54-.07-.05.93-.1,1.96-.16,3.06ZM24.3,55.62c-5.22.17-10.49-.02-15.69-.59.02-.45.04-.86.06-1.21l15.7.23c-.02.43-.04.97-.07,1.57ZM27.85,76.85l-2.13-.03c.2-3.96.82-15.71,1.08-21.19l1.63,1.56-.58,19.66ZM51.38,77.18l-15.71-.22c.24-7.1,1.36-40.67,1.56-47.99l15.71.23c-.2,7.33-1.33,41.1-1.56,47.98ZM57.18,77.26l-3.3-.04c.23-6.98,1.31-39.24,1.55-47.48.96.75,1.89,1.59,2.39,2.06-.07,4.29-.53,33.18-.64,45.46ZM68.62,2.52l2.99.04c-1.06.76-2.09,1.57-3.07,2.42.03-1,.06-1.83.08-2.46ZM68.47,7.06c1.78-1.65,3.71-3.15,5.75-4.46l4.27.06c-3.55,3-6.97,6.18-10.2,9.5.07-1.9.13-3.62.18-5.1ZM68.24,13.72c.08.03.17.05.26.05.19,0,.39-.07.54-.23,3.68-3.82,7.63-7.47,11.73-10.85l3.55.05c0,.13,0,.26-.01.4l-16.28,16.56c.07-2.12.14-4.12.21-5.98ZM81.62,77.61l-4.18-.06c1.51-1.01,2.95-2.13,4.31-3.35-.06,1.63-.11,2.81-.13,3.41ZM81.83,72.06c-1.87,1.82-3.92,3.46-6.12,4.85-.22.14-.33.37-.34.61l-5.71-.08c4.4-2.84,8.54-6.09,12.33-9.71-.06,1.6-.12,3.05-.16,4.33ZM82.07,65.56c-4.39,4.36-9.29,8.22-14.55,11.47-.15.09-.24.23-.3.38l-1.31-.02c.04-.91.11-2.8.2-5.41,6-3.62,11.44-8.04,16.21-13.16-.09,2.4-.18,4.66-.25,6.74ZM82.4,56.48c-4.73,5.33-10.17,9.93-16.22,13.7.07-1.82.14-3.88.23-6.14,5.68-4.31,11.12-9.01,16.23-13.99-.08,2.2-.16,4.36-.24,6.43ZM82.72,47.89c-5.09,5.05-10.55,9.81-16.24,14.19.07-1.81.14-3.71.21-5.69,5.57-5.37,11.05-10.96,16.33-16.63-.1,2.73-.2,5.46-.3,8.13ZM83.09,37.7c-.14.03-.28.09-.39.21-5.14,5.55-10.5,11.02-15.93,16.31.1-2.83.21-5.78.32-8.78,5.52-5.03,10.99-10.23,16.28-15.49-.09,2.54-.18,5.13-.28,7.75ZM83.45,27.76c-5.28,5.28-10.75,10.51-16.28,15.57.07-1.93.14-3.87.21-5.81l16.31-16.35c-.08,2.11-.16,4.32-.24,6.59ZM83.77,18.97l-16.31,16.35c.06-1.54.11-3.06.17-4.56l16.3-16.35c-.05,1.44-.11,2.96-.16,4.56ZM83.97,12.25l-16.26,16.3c.08-2.34.16-4.63.24-6.81.13-.03.26-.09.36-.19l15.93-16.2c-.06,1.81-.14,4.15-.23,6.87-.01,0-.03.02-.04.03ZM87.9,77.69h0s-3.78-.04-3.78-.04c.24-6.3,2.19-59.01,2.64-72.94.95.97,1.91,1.93,2.88,2.86l-1.74,70.12ZM94.56,82.72l.25-6.49c1.81,1.11,3.69,2.1,5.62,2.96-1.83,1.37-3.8,2.55-5.87,3.53Z"/>
</svg>