<?xml version="1.0" encoding="UTF-8"?>
<svg id="base_icon" data-name="base icon" xmlns="http://www.w3.org/2000/svg" viewBox="0 0 223.46 189.45">
  <defs>
    <style>
      .cls-1 {
        fill: #fff;
      }
    </style>
  </defs>
  <path class="cls-1" d="M222.76,98.07c-.37,9.8-7.35,25.39-17.04,26.58-2.63.32-6.38.62-11.06.89-.09.4-.18.79-.28,1.13-1.61,5.69-4.84,6.64-6.62,6.7-1.28.05-2.51.11-3.73.18-3.02.17-6.11.33-9.69.16.78,1.88,1.44,3.47,2.05,4.93,2.68,6.42,4.3,10.29,9.12,25.05.04.11,3.58,11.7-.74,15.29-4.52,3.75-20.5,9.98-25.71,10.46-.1,0-.2,0-.31,0-3.76,0-11.44-5.56-12.99-9.5-4.87-12.39-7.85-20.11-10.32-27.14-2.78,2.3-6.14,4.35-11.15,6.59-3.98,1.78-8.43-.92-11.47-3.5-1.43-1.21-8.5-7.58-6.96-13.44,1.3-4.91,2.68-10.11,4.09-15.31h-.66c-35.94,0-77.57-.64-89.24-2.1-9.92-1.24-18.35-15.77-18.78-22.57C.03,83.28-.39,41.37.39,16.26.67,7.35,6.93.94,15.63.66,53.36-.57,158.89,0,203.83,1.66c9.99.37,17.66,6.86,18.26,15.44,2.09,30.32,1.32,63.75.67,80.97Z"/>
  <path d="M20.34,88.64h-1.94c-1.55,0-2.8,1.25-2.8,2.8s1.25,2.79,2.8,2.79h1.94c1.55,0,2.8-1.25,2.8-2.79s-1.25-2.8-2.8-2.8ZM19.64,70.21h-.85c-1.55,0-2.8,1.25-2.8,2.79s1.25,2.8,2.8,2.8h.85c1.54,0,2.79-1.25,2.79-2.8s-1.25-2.79-2.79-2.79ZM19.94,79.32h-1.26c-1.54,0-2.8,1.25-2.8,2.8s1.26,2.79,2.8,2.79h1.26c1.54,0,2.79-1.25,2.79-2.79s-1.25-2.8-2.79-2.8ZM80.25,53.37c-1.65-1.68-3.8-2.95-6.51-3.83,1.92-2.24,3.06-5.15,3.06-8.98s-1.52-7.07-4.38-9.32c-6.7-5.27-18.41-3.44-24.78-1.89-1.88.46-3.2,2.14-3.2,4.07,0,8.3.45,21.36,1.33,38.84l.06,1.31c0,.44.09.88.24,1.31.57,1.63,2.08,2.73,3.78,2.79l.55.07c3.75.42,7.2.63,10.34.63,8.51,0,14.74-1.56,18.58-4.67,2.6-2.1,4.15-4.94,4.46-8.12.62-5.1-.57-9.2-3.53-12.21ZM52.84,36.81c6.52-1.16,12.09-.8,14.41,1.02.58.46,1.17,1.14,1.17,2.73,0,2.36,0,6.32-15.29,7.97-.15-4.49-.25-8.4-.29-11.72ZM75.45,64.67c-.1,1.04-.53,1.82-1.4,2.52-1.47,1.19-6.29,3.69-20.02,2.49-.23-4.58-.42-8.84-.59-12.77.08,0,.16,0,.25-.02h.04c14.38-1.5,19.05.83,20.55,2.36.7.71,1.58,2.03,1.17,5.42ZM177.2,26.75c-1.91-1.31-4.51-.84-5.83,1.07-3.09,4.49-6.42,8.92-9.92,13.22-4.45-4.42-8.32-8.78-12.09-13.03v-.02c-1.54-1.73-4.19-1.89-5.92-.35-1.73,1.53-1.88,4.19-.35,5.92,4.54,5.12,9.25,10.4,14.95,15.83l-1,21.57c-.11,2.31,1.68,4.28,3.99,4.38.07,0,.13,0,.2,0,2.22,0,4.07-1.75,4.18-4l1.09-23.34c4.16-5,8.14-10.17,11.77-15.43,1.31-1.91.83-4.52-1.07-5.83ZM131.95,40.91c-.23-2.7-.46-5.39-.63-8.09-.15-2.31-2.13-4.04-4.46-3.91-2.3.15-4.06,2.14-3.91,4.45.18,2.76.42,5.51.65,8.27.46,5.27.93,10.72.93,16,0,3.27-.97,5.86-2.89,7.7-2.29,2.21-5.43,2.9-7.45,2.83-8.67-.32-12.21-3.17-12.21-9.85,0-5.39-.02-10.79-.03-16.18l-.03-8.36c0-2.31-1.88-4.18-4.19-4.18h-.01c-2.31,0-4.18,1.89-4.18,4.2l.03,8.37c.01,5.38.03,10.77.03,16.15,0,7.97,3.52,17.6,20.28,18.23.22,0,.43,0,.65,0,4.74,0,9.53-1.91,12.93-5.19,3.56-3.43,5.45-8.18,5.45-13.73s-.49-11.27-.96-16.72ZM177.2,26.75c-1.91-1.31-4.51-.84-5.83,1.07-3.09,4.49-6.42,8.92-9.92,13.22-4.45-4.42-8.32-8.78-12.09-13.03v-.02c-1.54-1.73-4.19-1.89-5.92-.35-1.73,1.53-1.88,4.19-.35,5.92,4.54,5.12,9.25,10.4,14.95,15.83l-1,21.57c-.11,2.31,1.68,4.28,3.99,4.38.07,0,.13,0,.2,0,2.22,0,4.07-1.75,4.18-4l1.09-23.34c4.16-5,8.14-10.17,11.77-15.43,1.31-1.91.83-4.52-1.07-5.83ZM131.32,32.82c-.15-2.31-2.13-4.04-4.46-3.91-2.3.15-4.06,2.14-3.91,4.45.18,2.76.42,5.51.65,8.27.46,5.27.93,10.72.93,16,0,3.27-.97,5.86-2.89,7.7-2.29,2.21-5.43,2.9-7.45,2.83-8.67-.32-12.21-3.17-12.21-9.85,0-5.39-.02-10.79-.03-16.18l-.03-8.36c0-2.31-1.88-4.18-4.19-4.18h-.01c-2.31,0-4.18,1.89-4.18,4.2l.03,8.37c.01,5.38.03,10.77.03,16.15,0,7.97,3.52,17.6,20.28,18.23.22,0,.43,0,.65,0,4.74,0,9.53-1.91,12.93-5.19,3.56-3.43,5.45-8.18,5.45-13.73s-.49-11.27-.96-16.72c-.23-2.7-.46-5.39-.63-8.09ZM73.74,49.54c1.92-2.24,3.06-5.15,3.06-8.98s-1.52-7.07-4.38-9.32c-6.7-5.27-18.41-3.44-24.78-1.89-1.88.46-3.2,2.14-3.2,4.07,0,8.3.45,21.36,1.33,38.84l.06,1.31c0,.44.09.88.24,1.31.57,1.63,2.08,2.73,3.78,2.79l.55.07c3.75.42,7.2.63,10.34.63,8.51,0,14.74-1.56,18.58-4.67,2.6-2.1,4.15-4.94,4.46-8.12.62-5.1-.57-9.2-3.53-12.21-1.65-1.68-3.8-2.95-6.51-3.83ZM52.84,36.81c6.52-1.16,12.09-.8,14.41,1.02.58.46,1.17,1.14,1.17,2.73,0,2.36,0,6.32-15.29,7.97-.15-4.49-.25-8.4-.29-11.72ZM75.45,64.67c-.1,1.04-.53,1.82-1.4,2.52-1.47,1.19-6.29,3.69-20.02,2.49-.23-4.58-.42-8.84-.59-12.77.08,0,.16,0,.25-.02h.04c14.38-1.5,19.05.83,20.55,2.36.7.71,1.58,2.03,1.17,5.42ZM20.34,88.64h-1.94c-1.55,0-2.8,1.25-2.8,2.8s1.25,2.79,2.8,2.79h1.94c1.55,0,2.8-1.25,2.8-2.79s-1.25-2.8-2.8-2.8ZM18.68,84.91h1.26c1.54,0,2.79-1.25,2.79-2.79s-1.25-2.8-2.79-2.8h-1.26c-1.54,0-2.8,1.25-2.8,2.8s1.26,2.79,2.8,2.79ZM18.79,75.8h.85c1.54,0,2.79-1.25,2.79-2.8s-1.25-2.79-2.79-2.79h-.85c-1.55,0-2.8,1.25-2.8,2.79s1.25,2.8,2.8,2.8ZM222.09,17.1c-.6-8.58-8.27-15.07-18.26-15.44C158.89,0,53.36-.57,15.63.66,6.93.94.67,7.35.39,16.26-.39,41.37.03,83.28,1.27,102.48c.43,6.8,8.86,21.33,18.78,22.57,11.67,1.46,53.3,2.1,89.24,2.1h.66c-1.41,5.2-2.79,10.4-4.09,15.31-1.54,5.86,5.53,12.23,6.96,13.44,3.04,2.58,7.49,5.28,11.47,3.5,5.01-2.24,8.37-4.29,11.15-6.59,2.47,7.03,5.45,14.75,10.32,27.14,1.55,3.94,9.23,9.5,12.99,9.5.11,0,.21,0,.31,0,5.21-.48,21.19-6.71,25.71-10.46,4.32-3.59.78-15.18.74-15.29-4.82-14.76-6.44-18.63-9.12-25.05-.61-1.46-1.27-3.05-2.05-4.93,3.58.17,6.67,0,9.69-.16,1.22-.07,2.45-.13,3.73-.18,1.78-.06,5.01-1.01,6.62-6.7.1-.34.19-.73.28-1.13,4.68-.27,8.43-.57,11.06-.89,9.69-1.19,16.67-16.78,17.04-26.58.65-17.22,1.42-50.65-.67-80.97ZM112.23,118.77c-43.83.06-81.13-.78-91.15-2.03-2.89-.37-6.63-4.56-9.04-8.64,1.49.48,3.09.82,4.88.91,14.91.77,45.97,1.19,84.92,1.19,4.17,0,8.45,0,12.79,0-.79,2.78-1.59,5.65-2.4,8.58ZM134.13,142.37c-3.38,3.8-6.19,6.17-12.77,9.16-1.59-.44-4.43-2.95-6.08-5.11,5.26-1.31,11.8-6.81,16.18-10.99.94,1.82,2.09,4.18,3.1,6.55-.15.12-.3.24-.43.39ZM177.76,167.1c.49,1.92.81,4.61.78,6.06-3.99,2.53-15.28,7.08-19.58,7.84-1.54-.71-4.63-2.89-5.32-4l.81-.32c7.05-2.69,16.34-6.24,23.31-9.58ZM176.04,161.72c-6.79,3.33-16.37,6.99-23.58,9.74l-.89.35c-4.92-12.59-7.66-19.88-10.24-27.67-.02-.1-.01-.2-.04-.3-2.09-6.19-6.51-14.06-6.7-14.39-.43-.77-1.2-1.29-2.07-1.4s-1.75.19-2.36.82c-5.53,5.67-11.85,10.52-15.18,11.89,7.5-28.31,13.12-47.56,15.52-53.06,2.15-4.94,4.34-5.1,7.62-3.67,5.68,2.48,22.62,13,46.58,28.93v.05c.01.08.02.13.03.17-2,1.25-11.46-.69-15.55-1.54-4.52-.92-7.16-1.45-8.92-1.28-1.14.11-2.11.9-2.43,2-.85,2.9,1.28,8.1,5.77,17.31.2.4.38.78.55,1.12,1.95,4.95,3.33,8.27,4.51,11.08,2.3,5.51,3.8,9.1,7.38,19.85ZM186.14,125.05c-.87.04-1.72.09-2.57.13-4.8.27-8.94.49-15.02-.52-.39-.07-.79-.07-1.17-.02-1.23-2.57-2.81-6-3.63-8.37,1.34.24,2.91.56,4.31.85,8.53,1.75,15.1,2.85,18.93,1.11.04,2.5-.26,5.34-.85,6.82ZM204.7,116.33c-2.25.28-5.43.53-9.38.77-.16-2.9-.75-5.72-2.04-7.75,4.34-.1,8.08-.22,11.13-.33,1.99-.08,4.64-.19,7.2-.91-2.08,4.45-4.9,7.97-6.91,8.22ZM214.4,97.42s-.02.04-.02.07c-.37,3.85-1.93,5.63-10.18,5.95-4.55.17-10.59.33-17.97.48-15.24-10.09-37.08-24.22-44.77-27.57-8.08-3.53-14.88-.61-18.64,8-1.54,3.54-3.92,11.06-6.59,20.25-45.53.12-82.42-.32-99.03-1.16-2.95-.15-5.31-1.05-6.63-2.51-.59-.65-.95-1.41-1.13-2.26-1.07-20.16-1.41-58.58-.68-82.15.17-5.36,3.95-7.39,7.15-7.49,37.59-1.22,142.8-.66,187.61,1,5.62.21,9.92,3.43,10.21,7.65,2.05,29.74,1.31,62.59.67,79.74ZM177.2,26.75c-1.91-1.31-4.51-.84-5.83,1.07-3.09,4.49-6.42,8.92-9.92,13.22-4.45-4.42-8.32-8.78-12.09-13.03v-.02c-1.54-1.73-4.19-1.89-5.92-.35-1.73,1.53-1.88,4.19-.35,5.92,4.54,5.12,9.25,10.4,14.95,15.83l-1,21.57c-.11,2.31,1.68,4.28,3.99,4.38.07,0,.13,0,.2,0,2.22,0,4.07-1.75,4.18-4l1.09-23.34c4.16-5,8.14-10.17,11.77-15.43,1.31-1.91.83-4.52-1.07-5.83ZM131.32,32.82c-.15-2.31-2.13-4.04-4.46-3.91-2.3.15-4.06,2.14-3.91,4.45.18,2.76.42,5.51.65,8.27.46,5.27.93,10.72.93,16,0,3.27-.97,5.86-2.89,7.7-2.29,2.21-5.43,2.9-7.45,2.83-8.67-.32-12.21-3.17-12.21-9.85,0-5.39-.02-10.79-.03-16.18l-.03-8.36c0-2.31-1.88-4.18-4.19-4.18h-.01c-2.31,0-4.18,1.89-4.18,4.2l.03,8.37c.01,5.38.03,10.77.03,16.15,0,7.97,3.52,17.6,20.28,18.23.22,0,.43,0,.65,0,4.74,0,9.53-1.91,12.93-5.19,3.56-3.43,5.45-8.18,5.45-13.73s-.49-11.27-.96-16.72c-.23-2.7-.46-5.39-.63-8.09ZM73.74,49.54c1.92-2.24,3.06-5.15,3.06-8.98s-1.52-7.07-4.38-9.32c-6.7-5.27-18.41-3.44-24.78-1.89-1.88.46-3.2,2.14-3.2,4.07,0,8.3.45,21.36,1.33,38.84l.06,1.31c0,.44.09.88.24,1.31.57,1.63,2.08,2.73,3.78,2.79l.55.07c3.75.42,7.2.63,10.34.63,8.51,0,14.74-1.56,18.58-4.67,2.6-2.1,4.15-4.94,4.46-8.12.62-5.1-.57-9.2-3.53-12.21-1.65-1.68-3.8-2.95-6.51-3.83ZM52.84,36.81c6.52-1.16,12.09-.8,14.41,1.02.58.46,1.17,1.14,1.17,2.73,0,2.36,0,6.32-15.29,7.97-.15-4.49-.25-8.4-.29-11.72ZM75.45,64.67c-.1,1.04-.53,1.82-1.4,2.52-1.47,1.19-6.29,3.69-20.02,2.49-.23-4.58-.42-8.84-.59-12.77.08,0,.16,0,.25-.02h.04c14.38-1.5,19.05.83,20.55,2.36.7.71,1.58,2.03,1.17,5.42ZM20.34,88.64h-1.94c-1.55,0-2.8,1.25-2.8,2.8s1.25,2.79,2.8,2.79h1.94c1.55,0,2.8-1.25,2.8-2.79s-1.25-2.8-2.8-2.8ZM18.68,84.91h1.26c1.54,0,2.79-1.25,2.79-2.79s-1.25-2.8-2.79-2.8h-1.26c-1.54,0-2.8,1.25-2.8,2.8s1.26,2.79,2.8,2.79ZM18.79,75.8h.85c1.54,0,2.79-1.25,2.79-2.8s-1.25-2.79-2.79-2.79h-.85c-1.55,0-2.8,1.25-2.8,2.79s1.25,2.8,2.8,2.8Z"/>
</svg>