<?xml version="1.0" encoding="UTF-8"?>
<svg id="base_icon" data-name="base icon" xmlns="http://www.w3.org/2000/svg" viewBox="0 0 211.02 179.98">
  <defs>
    <style>
      .cls-1 {
        fill: none;
      }

      .cls-2 {
        fill: #fff;
      }
    </style>
  </defs>
  <path class="cls-2" d="M210.72,5.44l-26.42,52.35c-.37.72-1.02,1.24-1.8,1.45-.78.19-1.61.05-2.28-.41l-18.07-12.39-6.41,4.49c3.25,5.43,6.34,11.49,8.7,17.85-.87-2.14.15-4.59,2.3-5.46,2.14-.88,4.58.16,5.46,2.3,8.05,19.76,8.23,34.39.62,40.52-.45.62-1.06,1.14-1.82,1.45-11.86,4.84-28.44,11.6-46.01,18.72,1.6,2.56,2.48,4.16,3.37,5.79.54.99,1.09,1.99,1.84,3.26,3.86,6.6,4.27,13.41,1.09,18.22-2.16,3.26-5.62,5.05-7.91,6.24-13.62,7.09-27.87,13.28-42.35,18.41-2.25.8-4.93,1.75-7.68,1.75-1.67,0-3.37-.35-5.01-1.29-7.51-4.31-14.3-13.93-18.6-22.28-9.27,3.6-15.46,5.88-16.58,6.04-.85.11-1.75.17-2.7.17-7.45,0-17.5-3.8-24.74-14.88-8.05-12.34-6.36-24.4-2.47-30.99C19.39,89.44,85.2,20.7,99.86,5.52c1.06-1.54,2.28-2.67,3.51-3.47,9.1-5.94,24.28,1.2,40.6,19.1,1.56,1.71,1.44,4.36-.27,5.92-1.67,1.52-4.23,1.44-5.8-.16.64.69,3.91,4.24,8.11,9.72l14.6-24.97c.45-.76,1.23-1.27,2.11-1.36.87-.09,1.75.22,2.35.87l12.33,13.24L206.52,1.97c1.03-.8,2.48-.77,3.48.06,1.01.83,1.31,2.25.72,3.41Z"/>
  <path d="M45.46,90.1l-.56-.65c-1.01-1.17-2.78-1.3-3.94-.29-1.17,1.01-1.3,2.77-.29,3.94l.56.64c.55.65,1.33.97,2.11.97.65,0,1.3-.22,1.83-.68,1.16-1,1.29-2.77.29-3.93ZM38.74,95.93c-.96-1.21-2.72-1.4-3.93-.44-1.2.96-1.4,2.72-.44,3.92l.79,1c.56.69,1.37,1.05,2.19,1.05.61,0,1.23-.2,1.74-.61,1.21-.96,1.4-2.72.44-3.92l-.79-1ZM32.39,102.69c-.82-1.31-2.55-1.69-3.85-.87-1.31.82-1.7,2.54-.88,3.85l1.04,1.65c.53.84,1.44,1.3,2.37,1.3.51,0,1.02-.14,1.48-.42,1.31-.83,1.7-2.55.88-3.86l-1.04-1.65ZM172.2,65.62c-.88-2.14-3.32-3.18-5.46-2.3-2.15.87-3.17,3.32-2.3,5.46,6.96,17.08,6.68,28.57,2.81,31.1-1.26.82-3.16.87-5.47.27,2.41-8.35-2.15-22.49-8.31-34.77-.69-1.38-2.37-1.94-3.75-1.25-1.37.69-1.93,2.37-1.24,3.75.08.16.15.31.23.47l-14.56,10.04c-.85-1.02-1.71-2.07-2.55-3.14l10.95-8.38c.61-.47.73-1.35.26-1.96-.47-.61-1.34-.73-1.96-.26l-10.99,8.41c-.95-1.25-1.88-2.54-2.81-3.84l2.09-1.4c.64-.43.81-1.3.39-1.94-.44-.64-1.3-.81-1.94-.38l-2.14,1.43c-.71-1.04-1.43-2.07-2.13-3.14-.24-.36-.46-.74-.69-1.1l7.37-5.34c.62-.45.76-1.32.31-1.95-.45-.63-1.32-.76-1.95-.31l-7.22,5.22c-.84-1.36-1.65-2.72-2.43-4.08l12.64-9.05c.63-.45.77-1.32.33-1.95-.45-.63-1.33-.77-1.95-.32l-12.41,8.89c-.89-1.62-1.73-3.22-2.53-4.82l13.88-10.76c1.23,1.42,2.47,2.89,3.72,4.47.55.7,1.37,1.06,2.19,1.06.61,0,1.22-.19,1.74-.6,1.21-.96,1.41-2.72.45-3.93-9.27-11.71-22.04-23.56-31.44-24.1.18-1.89.62-3.41,1.29-4.53.72-.75,1.26-1.3,1.6-1.66,4.37-2.36,16.02,3.01,29.56,17.86h.01c.03.05.07.09.11.12,1.57,1.6,4.13,1.68,5.8.16,1.71-1.56,1.83-4.21.27-5.92C127.65,3.25,112.47-3.89,103.37,2.05c-1.23.8-2.45,1.93-3.51,3.47C85.2,20.7,19.39,89.44,3.25,116.75c-3.89,6.59-5.58,18.65,2.47,30.99,7.24,11.08,17.29,14.88,24.74,14.88.95,0,1.85-.06,2.7-.17,1.12-.16,7.31-2.44,16.58-6.04,4.3,8.35,11.09,17.97,18.6,22.28,1.64.94,3.34,1.29,5.01,1.29,2.75,0,5.43-.95,7.68-1.75,14.48-5.13,28.73-11.32,42.35-18.41,2.29-1.19,5.75-2.98,7.91-6.24,3.18-4.81,2.77-11.62-1.09-18.22-.75-1.27-1.3-2.27-1.84-3.26-.89-1.63-1.77-3.23-3.37-5.79,17.57-7.12,34.15-13.88,46.01-18.72.76-.31,1.37-.83,1.82-1.45,7.61-6.13,7.43-20.76-.62-40.52ZM153.27,78.81c.76,2.02,1.38,3.93,1.9,5.71-2.81,2.24-5.63,4.46-8.45,6.68-1.57-1.33-3.15-2.8-4.72-4.34l11.27-8.05ZM149.94,70.9c.85,1.81,1.6,3.55,2.28,5.23l-12.24,8.74c-1.34-1.38-2.68-2.84-4-4.35l13.96-9.62ZM126.81,36.13l-13.27,10.28c-.74-1.57-1.44-3.12-2.09-4.65,4.09-2.94,8.09-6.01,11.95-9.21,1.12,1.12,2.26,2.31,3.41,3.58ZM121.38,30.6c-3.57,2.94-7.26,5.77-11.03,8.5-.58-1.48-1.12-2.93-1.61-4.37l9.1-7.27c1.14.94,2.33,2,3.54,3.14ZM115.58,25.69l-7.76,6.21c-.46-1.49-.86-2.95-1.2-4.37l5.8-4.01c1.01.62,2.06,1.35,3.16,2.17ZM109.68,22.02l-3.69,2.55c-.25-1.35-.46-2.66-.58-3.88,1.2.11,2.64.56,4.27,1.33ZM32.04,154.14c-4.13.56-12.87-1.12-19.31-10.99-5.94-9.11-4.93-17.62-2.26-22.14.93-1.57,2.07-3.33,3.35-5.19,1.96,6.06,5.36,12.85,8.86,18.2,4.08,6.26,8.98,11.88,13.77,15.84.85.7,1.64,1.28,2.42,1.83-3.68,1.4-6.09,2.27-6.83,2.45ZM45.68,149.06c-2.53-.54-10.84-6.63-18.33-18.09-5.56-8.53-8.37-16.35-9.32-21.04,13.39-17.98,36.81-44.13,56.51-65.4,2.09,11.24,9.3,27.4,18.2,41.03,8.85,13.55,20.83,26.53,30.23,32.52-30.11,12.2-60.32,24.35-77.29,30.98ZM110.05,145.7c-.53.8-1.62,1.41-2.9,2.08-8.26,4.29-16.88,8.04-25.63,11.14-.96.34-2.74.97-3.65.56-.61-.27-1.28-1.18-1.81-1.91l-6.55-8.94c10.99-4.37,23.51-9.4,36.24-14.53,1.11,1.76,1.68,2.8,2.25,3.83.36.65.72,1.31,1.22,2.16.98,1.68,1.79,4.16.83,5.61ZM124.3,148.95c-.89,1.34-2.69,2.35-4.78,3.44-13.29,6.91-27.18,12.94-41.48,18.01-1.9.68-4.52,1.61-5.53,1.02-4.84-2.78-10.52-9.71-14.93-18.07,2.1-.83,4.28-1.68,6.56-2.59l7.41,10.11c.88,1.2,2.08,2.84,4.04,3.71,1.01.45,2.04.62,3.03.62,1.9,0,3.65-.62,4.76-1.02,9-3.19,17.86-7.04,26.35-11.45,1.44-.74,3.61-1.88,4.98-3.94,2.02-3.05,1.77-7.36-.67-11.52-.47-.8-.8-1.41-1.14-2.02-.52-.95-1.03-1.88-1.89-3.28,2.03-.82,4.07-1.64,6.1-2.47,2,3.16,2.93,4.86,3.91,6.63.57,1.05,1.15,2.11,1.95,3.47,1.7,2.91,2.95,6.9,1.33,9.35ZM129.46,115.45c-5.99-2.59-19.64-13.95-32.05-32.95-12.28-18.81-17.57-35.96-18.09-43.11,6.71-7.2,12.78-13.62,17.66-18.74.21,2.49.65,5.27,1.38,8.4,2.78,11.89,9.16,25.86,17.95,39.33,8.79,13.46,19.01,24.91,28.79,32.24,2.97,2.23,5.66,3.9,8.14,5.16-7.68,3.13-15.69,6.38-23.78,9.67ZM156.61,98.06c-2.03-1.07-4.2-2.43-6.48-4.14-.39-.29-.78-.63-1.17-.93,2.33-1.83,4.65-3.67,6.97-5.51,1.07,4.6,1.24,8.19.68,10.58ZM44.9,89.45c-1.01-1.17-2.78-1.3-3.94-.29-1.17,1.01-1.3,2.77-.29,3.94l.56.64c.55.65,1.33.97,2.11.97.65,0,1.3-.22,1.83-.68,1.16-1,1.29-2.77.29-3.93l-.56-.65ZM38.74,95.93c-.96-1.21-2.72-1.4-3.93-.44-1.2.96-1.4,2.72-.44,3.92l.79,1c.56.69,1.37,1.05,2.19,1.05.61,0,1.23-.2,1.74-.61,1.21-.96,1.4-2.72.44-3.92l-.79-1ZM32.39,102.69c-.82-1.31-2.55-1.69-3.85-.87-1.31.82-1.7,2.54-.88,3.85l1.04,1.65c.53.84,1.44,1.3,2.37,1.3.51,0,1.02-.14,1.48-.42,1.31-.83,1.7-2.55.88-3.86l-1.04-1.65ZM39.53,96.93l-.79-1c-.96-1.21-2.72-1.4-3.93-.44-1.2.96-1.4,2.72-.44,3.92l.79,1c.56.69,1.37,1.05,2.19,1.05.61,0,1.23-.2,1.74-.61,1.21-.96,1.4-2.72.44-3.92ZM210,2.03c-1-.83-2.45-.86-3.48-.06l-29.12,22.44-12.33-13.24c-.6-.65-1.48-.96-2.35-.87-.88.09-1.66.6-2.11,1.36l-14.6,24.97-14.48,24.75c-.66,1.13-.44,2.57.52,3.46.53.49,1.21.74,1.89.74.56,0,1.12-.16,1.61-.5l20.19-14.15,6.41-4.49,18.07,12.39c.67.46,1.5.6,2.28.41.78-.21,1.43-.73,1.8-1.45l26.42-52.35c.59-1.16.29-2.58-.72-3.41ZM180.75,52.42l-17.04-11.69c-.96-.65-2.23-.65-3.18.02l-7.76,5.44-9.96,6.98,6.8-11.63,13.93-23.82,11.5,12.36c.99,1.05,2.61,1.18,3.75.3l21.4-16.48-19.44,38.52ZM33.43,104.34l-1.04-1.65c-.82-1.31-2.55-1.69-3.85-.87-1.31.82-1.7,2.54-.88,3.85l1.04,1.65c.53.84,1.44,1.3,2.37,1.3.51,0,1.02-.14,1.48-.42,1.31-.83,1.7-2.55.88-3.86ZM45.46,90.1l-.56-.65c-1.01-1.17-2.78-1.3-3.94-.29-1.17,1.01-1.3,2.77-.29,3.94l.56.64c.55.65,1.33.97,2.11.97.65,0,1.3-.22,1.83-.68,1.16-1,1.29-2.77.29-3.93Z"/>
  <path class="cls-1" d="M164.44,68.78c-2.36-6.36-5.45-12.42-8.7-17.85-.98-1.64-1.97-3.22-2.97-4.74-1.05-1.63-2.11-3.18-3.16-4.65-1.24-1.77-2.46-3.41-3.6-4.91-4.2-5.48-7.47-9.03-8.11-9.72l-.11-.11h-.01"/>
</svg>