<?xml version="1.0" encoding="UTF-8"?>
<svg id="Layer_1" xmlns="http://www.w3.org/2000/svg" version="1.1" viewBox="0 0 24 24">
  <!-- Generator: Adobe Illustrator 30.0.0, SVG Export Plug-In . SVG Version: 2.1.1 Build 123)  -->
  <defs>
    <style>
      .st0 {
        fill: #757575;
      }

      .st1 {
        fill: #f3c300;
      }
    </style>
  </defs>
  <path class="st0" d="M20,0H4C1.79,0,0,1.79,0,4v16c0,2.21,1.79,4,4,4h16c2.21,0,4-1.79,4-4V4C24,1.79,22.21,0,20,0ZM5,23h-1c-1.65,0-3-1.35-3-3V6h4v17ZM5,5H1v-1c0-1.65,1.35-3,3-3h1v4ZM11,23h-5v-5h5v5ZM11,17h-5v-5h5v5ZM11,11h-5v-5h5v5ZM17,23h-5v-5h5v5ZM17,17h-5v-5h5v5ZM17,11h-5v-5h5v5ZM23,20c0,1.65-1.35,3-3,3h-2v-5h5v2ZM23,17h-5v-5h5v5ZM23,11h-5v-5h5v5ZM23,5H6V1h14c1.65,0,3,1.35,3,3v1Z"/>
  <path class="st1" d="M10.35,8.37l-1.37,1.32c-.21.21-.48.31-.75.31s-.55-.1-.76-.31l-.84-.8c-.2-.19-.21-.5-.02-.7.19-.21.5-.21.7-.02l.86.8s.08.04.11.01l1.38-1.33c.2-.19.52-.19.71.01.19.2.18.52-.02.71Z"/>
  <path class="st1" d="M22.35,20.37l-1.37,1.32c-.21.21-.48.31-.75.31s-.55-.1-.76-.31l-.84-.8c-.2-.19-.21-.5-.02-.7s.5-.21.7-.02l.86.8s.08.04.11.01l1.38-1.33c.2-.19.52-.19.71.01.19.2.18.52-.02.71Z"/>
  <path class="st1" d="M16.35,14.37l-1.37,1.32c-.21.21-.48.31-.75.31s-.55-.1-.76-.31l-.84-.8c-.2-.19-.21-.5-.02-.7s.5-.21.7-.02l.86.8s.08.04.11.01l1.38-1.33c.2-.19.52-.19.71.01.19.2.18.52-.02.71Z"/>
</svg>