<?xml version="1.0" encoding="UTF-8"?>
<svg id="Layer_1" xmlns="http://www.w3.org/2000/svg" version="1.1" viewBox="0 0 24 24">
  <!-- Generator: Adobe Illustrator 30.0.0, SVG Export Plug-In . SVG Version: 2.1.1 Build 123)  -->
  <defs>
    <style>
      .st0 {
        fill: #757575;
      }

      .st1 {
        fill: #f3c300;
      }
    </style>
  </defs>
  <path class="st0" d="M24,23.52c0,.28-.23.5-.5.5h0l-20-.02c-1.93,0-3.5-1.57-3.5-3.5V.5C0,.22.22,0,.5,0s.5.22.5.5v20c0,1.38,1.12,2.5,2.5,2.5l20,.02c.27,0,.5.23.5.5Z"/>
  <path class="st0" d="M5,12.52v6.98c0,.28.22.5.5.5s.5-.22.5-.5v-6.98c0-.28-.22-.5-.5-.5s-.5.22-.5.5Z"/>
  <path class="st0" d="M10,10.52v8.98c0,.28.22.5.5.5s.5-.22.5-.5v-8.98c0-.28-.22-.5-.5-.5s-.5.22-.5.5Z"/>
  <path class="st0" d="M15,13.52v5.98c0,.28.22.5.5.5s.5-.22.5-.5v-5.98c0-.28-.22-.5-.5-.5s-.5.22-.5.5Z"/>
  <path class="st0" d="M20,9.5v10c0,.28.22.5.5.5s.5-.22.5-.5v-10c0-.28-.22-.5-.5-.5s-.5.22-.5.5Z"/>
  <path class="st1" d="M4.5,9c.13,0,.26-.05.35-.15l4.47-4.47c.37-.37.97-.37,1.35,0l2.95,2.95c.76.76,2,.76,2.76,0L22.85.85c.19-.19.19-.51,0-.71s-.51-.19-.71,0l-6.47,6.47c-.37.37-.98.37-1.35,0l-2.95-2.95c-.76-.76-2-.76-2.76,0l-4.47,4.47c-.19.19-.19.51,0,.71.1.1.23.15.35.15Z"/>
</svg>